<svg width="36" height="36" viewBox="0 0 36 36" fill="none" xmlns="http://www.w3.org/2000/svg">
<path d="M25.8975 13.8525L20.6475 8.6025C20.5421 8.49698 20.3991 8.43763 20.25 8.4375H11.25C10.9019 8.4375 10.5681 8.57578 10.3219 8.82192C10.0758 9.06806 9.9375 9.4019 9.9375 9.75V26.25C9.9375 26.5981 10.0758 26.9319 10.3219 27.1781C10.5681 27.4242 10.9019 27.5625 11.25 27.5625H24.75C25.0981 27.5625 25.4319 27.4242 25.6781 27.1781C25.9242 26.9319 26.0625 26.5981 26.0625 26.25V14.25C26.0624 14.1009 26.003 13.9579 25.8975 13.8525ZM20.8125 10.3575L24.1425 13.6875H20.8125V10.3575ZM24.75 26.4375H11.25C11.2003 26.4375 11.1526 26.4177 11.1174 26.3826C11.0823 26.3474 11.0625 26.2997 11.0625 26.25V9.75C11.0625 9.70027 11.0823 9.65258 11.1174 9.61742C11.1526 9.58225 11.2003 9.5625 11.25 9.5625H19.6875V14.25C19.6875 14.3992 19.7468 14.5423 19.8523 14.6477C19.9577 14.7532 20.1008 14.8125 20.25 14.8125H24.9375V26.25C24.9375 26.2997 24.9177 26.3474 24.8826 26.3826C24.8474 26.4177 24.7997 26.4375 24.75 26.4375Z" fill="#495057"/>
<circle cx="18" cy="18" r="17.5" stroke="#495057"/>
</svg>
