<svg width="185" height="29" viewBox="0 0 185 29" fill="none" xmlns="http://www.w3.org/2000/svg">
<path d="M74.8135 8.26611L69.9795 23H66.0854L72.6895 5.22656H75.1675L74.8135 8.26611ZM78.8296 23L73.9834 8.26611L73.5928 5.22656H76.0952L82.7358 23H78.8296ZM78.6099 16.3838V19.2524H69.2227V16.3838H78.6099ZM91.3418 15.1997H86.7764L86.752 12.6851H90.585C91.2604 12.6851 91.8138 12.5996 92.2451 12.4287C92.6764 12.2497 92.9979 11.9933 93.2095 11.6597C93.4292 11.3179 93.5391 10.9028 93.5391 10.4146C93.5391 9.86117 93.4333 9.41357 93.2217 9.07178C93.0182 8.72998 92.6968 8.48177 92.2573 8.32715C91.826 8.17253 91.2686 8.09521 90.585 8.09521H88.0459V23H84.3838V5.22656H90.585C91.6185 5.22656 92.5422 5.32422 93.356 5.51953C94.1779 5.71484 94.8737 6.01188 95.4434 6.41064C96.013 6.80941 96.4484 7.31396 96.7495 7.92432C97.0506 8.52653 97.2012 9.24268 97.2012 10.0728C97.2012 10.8052 97.0343 11.4806 96.7007 12.0991C96.3752 12.7176 95.8584 13.2222 95.1504 13.6128C94.4505 14.0034 93.535 14.2191 92.4038 14.2598L91.3418 15.1997ZM91.1831 23H85.7754L87.2036 20.1436H91.1831C91.826 20.1436 92.3509 20.0418 92.7578 19.8384C93.1647 19.6268 93.4658 19.342 93.6611 18.9839C93.8564 18.6258 93.9541 18.2148 93.9541 17.751C93.9541 17.2301 93.8646 16.7785 93.6855 16.396C93.5146 16.0135 93.238 15.7205 92.8555 15.5171C92.473 15.3055 91.9684 15.1997 91.3418 15.1997H87.814L87.8384 12.6851H92.2329L93.0752 13.6738C94.1576 13.6576 95.0283 13.8488 95.6875 14.2476C96.3548 14.6382 96.839 15.1468 97.1401 15.7734C97.4494 16.4001 97.604 17.0715 97.604 17.7876C97.604 18.9269 97.3558 19.8872 96.8594 20.6685C96.363 21.4416 95.6346 22.0234 94.6743 22.4141C93.7222 22.8047 92.5584 23 91.1831 23ZM107.956 5.22656V23H104.306V5.22656H107.956ZM113.424 5.22656V8.09521H98.9224V5.22656H113.424ZM129.77 13.6982V14.5405C129.77 15.8914 129.586 17.104 129.22 18.1782C128.854 19.2524 128.337 20.168 127.67 20.9248C127.003 21.6735 126.205 22.2472 125.277 22.646C124.358 23.0448 123.336 23.2441 122.213 23.2441C121.098 23.2441 120.077 23.0448 119.149 22.646C118.23 22.2472 117.432 21.6735 116.757 20.9248C116.081 20.168 115.556 19.2524 115.182 18.1782C114.816 17.104 114.633 15.8914 114.633 14.5405V13.6982C114.633 12.3392 114.816 11.1266 115.182 10.0605C115.548 8.98633 116.065 8.0708 116.732 7.31396C117.408 6.55713 118.205 5.97933 119.125 5.58057C120.053 5.1818 121.074 4.98242 122.189 4.98242C123.312 4.98242 124.333 5.1818 125.253 5.58057C126.181 5.97933 126.978 6.55713 127.646 7.31396C128.321 8.0708 128.842 8.98633 129.208 10.0605C129.582 11.1266 129.77 12.3392 129.77 13.6982ZM126.071 14.5405V13.6738C126.071 12.7298 125.985 11.8997 125.814 11.1836C125.644 10.4674 125.391 9.86523 125.058 9.37695C124.724 8.88867 124.317 8.52246 123.837 8.27832C123.357 8.02604 122.807 7.8999 122.189 7.8999C121.57 7.8999 121.021 8.02604 120.541 8.27832C120.069 8.52246 119.666 8.88867 119.333 9.37695C119.007 9.86523 118.759 10.4674 118.588 11.1836C118.417 11.8997 118.332 12.7298 118.332 13.6738V14.5405C118.332 15.4764 118.417 16.3065 118.588 17.0308C118.759 17.7469 119.011 18.3532 119.345 18.8496C119.678 19.3379 120.085 19.7082 120.565 19.9604C121.046 20.2127 121.595 20.3389 122.213 20.3389C122.832 20.3389 123.381 20.2127 123.861 19.9604C124.341 19.7082 124.744 19.3379 125.07 18.8496C125.395 18.3532 125.644 17.7469 125.814 17.0308C125.985 16.3065 126.071 15.4764 126.071 14.5405Z" fill="black"/>
<path d="M132.37 5.22656H136.044V20.1436H141V5.22656H144.662V20.1436H149.569V5.22656H153.219V23H132.37V5.22656ZM168.283 20.1436V23H158.822V20.1436H168.283ZM160.019 5.22656V23H156.356V5.22656H160.019ZM167.05 12.4653V15.2485H158.822V12.4653H167.05ZM168.271 5.22656V8.09521H158.822V5.22656H168.271ZM177.34 16.6646H172.812V13.8081H177.34C178.04 13.8081 178.61 13.6942 179.049 13.4663C179.489 13.2303 179.81 12.9048 180.014 12.4897C180.217 12.0747 180.319 11.6068 180.319 11.0859C180.319 10.557 180.217 10.0646 180.014 9.60889C179.81 9.15316 179.489 8.78695 179.049 8.51025C178.61 8.23356 178.04 8.09521 177.34 8.09521H174.081V23H170.419V5.22656H177.34C178.732 5.22656 179.924 5.47884 180.917 5.9834C181.918 6.47982 182.683 7.16748 183.212 8.04639C183.741 8.92529 184.005 9.93034 184.005 11.0615C184.005 12.209 183.741 13.2018 183.212 14.04C182.683 14.8783 181.918 15.5252 180.917 15.981C179.924 16.4367 178.732 16.6646 177.34 16.6646Z" fill="#FFE600"/>
<g clip-path="url(#clip0_202_2166)">
<path d="M30.4953 7.09592C30.4318 7.10951 30.3503 7.15936 30.314 7.20467C30.2642 7.26811 30.1237 7.30889 29.7431 7.35873C29.0408 7.45842 27.7992 7.72123 27.2554 7.88889C25.5154 8.42811 22.7695 9.66514 20.2773 11.0381L19.5931 11.4097L18.8953 11.4414C15.5059 11.5773 11.7812 11.9353 9.212 12.3658C6.80591 12.7736 5.3831 13.1633 4.23669 13.7297C2.99966 14.3369 2.96794 14.3776 3.00419 15.2703C3.01779 15.6192 3.07216 16.0542 3.14466 16.3986C3.2806 17.0375 3.29419 17.4725 3.18997 17.8984C3.15372 18.0661 3.1356 18.2609 3.14919 18.347C3.1945 18.5781 3.36216 18.8862 3.57966 19.1309L3.76997 19.3484H4.25029C4.85294 19.3484 5.02966 19.3937 5.18372 19.5931C5.32419 19.7789 5.33779 19.7789 6.84216 19.8469C7.40404 19.874 7.98857 19.9058 8.14716 19.9194L8.4281 19.9465L8.43263 19.0901C8.43716 18.6234 8.45075 18.1159 8.46888 17.9664L8.5006 17.6945L8.53685 18.1476C8.55497 18.3969 8.60029 18.7412 8.632 18.9089C8.7045 19.2578 9.01716 19.942 9.26185 20.2773C9.48841 20.59 9.94607 21.0476 10.1817 21.1972C10.2904 21.2651 10.3765 21.3286 10.3765 21.3422C10.3765 21.3558 8.10638 21.3694 5.33325 21.3739C2.56466 21.3784 0.226535 21.3965 0.149504 21.4101C-0.122371 21.46 -0.00455869 21.5098 0.444035 21.5415C0.684191 21.5597 3.1356 21.5914 5.8906 21.614C8.69544 21.6412 11.0064 21.6775 11.1468 21.7001C11.2828 21.7273 11.4776 21.7726 11.5773 21.8044C11.8492 21.8859 12.8143 21.8723 13.2992 21.7772C13.6753 21.7047 14.2281 21.6956 20.4812 21.6729C28.5967 21.6458 43.1194 21.7273 44.089 21.8044C44.9454 21.8769 45.7384 21.8723 46.4679 21.8044C46.8803 21.7636 48.7019 21.7364 52.5036 21.7137C55.4987 21.6956 57.9637 21.6684 57.9819 21.6458C58.1223 21.5098 57.9094 21.5008 52.6622 21.4736C49.7803 21.4554 47.3833 21.4283 47.3379 21.4101C47.2745 21.3829 47.2926 21.3558 47.4558 21.247C47.5645 21.1745 47.8364 20.9298 48.0584 20.6987C48.4798 20.2637 48.7109 19.8786 48.942 19.2351C49.0779 18.859 49.1142 17.7625 49.01 17.264C48.7879 16.2264 47.8998 15.1208 46.9301 14.6812C45.4439 14.0061 43.7764 14.3051 42.639 15.447C41.8642 16.2264 41.5515 17.0012 41.5515 18.1386C41.5561 19.2215 41.8733 19.9919 42.6617 20.8029C42.8294 20.9797 43.074 21.1926 43.2009 21.2833L43.432 21.4419L33.6898 21.4147C28.3339 21.4011 21.7998 21.3829 19.1808 21.3829C16.5572 21.3784 14.4093 21.3648 14.4093 21.3467C14.4093 21.3286 14.4637 21.2833 14.5362 21.2425C14.7583 21.1111 15.2703 20.6126 15.4697 20.3272C15.9636 19.6339 16.1675 19.0176 16.2083 18.0797C16.249 17.2187 16.2989 17.5133 16.3533 18.9542C16.3759 19.6022 16.4031 20.1323 16.4122 20.1414C16.4212 20.1504 22.0128 20.1414 28.8414 20.1233L41.257 20.0961L41.2842 18.9406C41.3069 17.9981 41.3295 17.7081 41.4065 17.3637C41.5153 16.897 41.7645 16.3261 42.0364 15.9228C42.4397 15.3292 43.2417 14.7265 43.9803 14.4592C44.7642 14.1737 45.8744 14.1556 46.6492 14.4139C48.072 14.8897 49.0372 16.0451 49.2773 17.5495C49.3136 17.7806 49.3544 18.3833 49.3725 18.8908L49.4042 19.8106L49.6806 19.7834C49.8347 19.7653 50.682 19.6429 51.5656 19.507C52.4492 19.3711 53.5322 19.2215 53.9672 19.1672C54.8462 19.0584 55.322 18.9678 55.4851 18.8862C55.6075 18.8183 56.4684 17.912 56.55 17.767C56.5862 17.6945 56.5862 17.5812 56.5454 17.3184C56.5001 17.0103 56.5047 16.9061 56.5908 16.4258C56.6406 16.1267 56.6995 15.6328 56.7176 15.3247L56.7448 14.7628L56.4865 14.2598C56.1467 13.5847 56.0787 13.2947 56.115 12.6875C56.1286 12.4247 56.1694 12.0214 56.2056 11.7903L56.2736 11.3689L56.0878 11.1061L55.9065 10.8433L55.254 10.8115C54.8915 10.7934 54.2073 10.7345 53.727 10.6711C53.2467 10.6122 52.5806 10.5397 52.2453 10.5125C51.6381 10.4581 51.6245 10.4536 50.2062 9.95967C48.584 9.38873 46.6583 8.74982 45.7928 8.49607C45.2445 8.32842 45.2083 8.31029 45.1494 8.17436C45.0769 8.00217 44.9772 7.97498 43.6586 7.75295C41.8506 7.44936 40.2375 7.29076 37.6547 7.15482C36.7122 7.10951 30.6856 7.05967 30.4953 7.09592ZM38.7195 7.47201C40.5909 7.62607 42.8565 7.9342 44.2386 8.2242C44.6283 8.30576 44.6872 8.35107 44.5558 8.47795L44.4606 8.57311L44.1072 8.43717C43.6495 8.26045 43.1692 8.14264 42.4578 8.02482C41.2072 7.82092 38.9098 7.61701 36.7484 7.51732C35.4072 7.45842 32.1356 7.48561 31.4695 7.56264C30.2461 7.70764 29.4259 7.85264 28.5423 8.09279C27.9261 8.26045 27.7947 8.26951 27.5545 8.18342C27.3551 8.11092 27.3733 8.10639 28.1572 7.92967C29.3081 7.67592 30.2189 7.54451 31.4695 7.45389C32.4483 7.38139 37.7906 7.39498 38.7195 7.47201ZM38.0398 7.81186C38.8917 7.88436 40.4233 8.04748 40.6815 8.09279C40.8356 8.12451 40.9172 8.21967 40.8447 8.29217C40.822 8.31482 40.6634 8.30576 40.4822 8.26951C40.3009 8.23779 40.0064 8.19248 39.8251 8.17889C39.6394 8.16076 39.4173 8.12904 39.3312 8.10639C38.9008 8.00217 36.5672 7.85717 34.5236 7.80732C33.4451 7.78014 33.1642 7.76201 33.4633 7.74389C34.1339 7.69404 37.1653 7.74389 38.0398 7.81186ZM42.5031 8.38732C44.0754 8.66826 44.8594 8.88123 47.8273 9.83279C50.8995 10.8161 52.1592 11.1423 53.3962 11.2737C53.6092 11.2919 53.1334 11.3145 52.0097 11.3281C51.0717 11.3417 50.2878 11.3644 50.2697 11.3825C50.2515 11.4051 50.2515 11.4323 50.2697 11.4504C50.2878 11.4731 51.3345 11.5048 52.5987 11.532L54.8915 11.5773L55.0592 11.8945C55.254 12.2661 55.3084 12.4156 55.2404 12.4156C55.2133 12.4156 55.1453 12.3612 55.0864 12.2978C54.9414 12.1256 54.6604 11.9761 54.375 11.9217C53.9672 11.8401 53.1697 11.7812 52.5353 11.7812C52.0006 11.7812 51.9236 11.7903 51.7423 11.8854L51.5429 11.9942L48.2351 12.0259C46.4136 12.044 44.7234 12.0712 44.4742 12.0939C44.225 12.112 44.0165 12.1301 44.012 12.1256C44.0075 12.1211 44.2023 11.9172 44.4425 11.6679C44.6826 11.4187 44.959 11.1061 45.0497 10.9656C45.1448 10.8297 45.2944 10.6122 45.3804 10.4898C45.5481 10.2587 45.5617 10.1681 45.4711 9.88264C45.4394 9.78748 45.4439 9.78295 45.53 9.82826C45.5798 9.85545 45.6795 9.90076 45.7475 9.92795C45.8744 9.97326 45.8744 9.97326 45.7883 9.88264C45.7429 9.82826 45.7294 9.78748 45.7565 9.78748C45.8426 9.78748 46.0375 10.0639 46.0375 10.1862C46.0375 10.3403 45.897 10.5759 45.7429 10.6756C45.6523 10.7345 45.6387 10.7617 45.684 10.7889C45.7294 10.8206 45.7294 10.8297 45.6795 10.8297C45.6433 10.8297 45.5753 10.8614 45.53 10.9067C45.4303 10.9973 45.4212 11.1922 45.5164 11.1922C45.5662 11.1922 45.5798 11.1604 45.5572 11.0834C45.539 11.0019 45.5526 10.9701 45.6206 10.9565C45.7339 10.9248 45.965 10.6122 46.0647 10.3494C46.1553 10.1047 46.119 9.99139 45.8925 9.8192C45.5481 9.56092 43.9486 9.0217 42.4351 8.6592C42.0092 8.55498 41.5651 8.44623 41.4383 8.41451C41.257 8.3692 41.2072 8.33748 41.1981 8.25592C41.1845 8.16076 41.1936 8.1517 41.334 8.17889C41.4156 8.19248 41.9412 8.28764 42.5031 8.38732ZM27.1376 8.39186C27.1875 8.52779 27.1422 8.58217 26.8793 8.67732C26.6754 8.75436 25.7783 9.18482 22.7695 10.6394C21.1836 11.4051 20.9751 11.4776 20.5718 11.4369C20.2818 11.4051 20.2773 11.4051 20.4268 11.3553C20.5084 11.3281 20.5628 11.2919 20.5492 11.2737C20.4268 11.1559 24.7995 9.05342 26.3039 8.50514C27.0062 8.25139 27.0787 8.24232 27.1376 8.39186ZM33.9526 8.32389C33.9753 8.36014 32.915 11.2828 32.8606 11.3372C32.8108 11.3825 30.8079 11.464 28.5468 11.5139C27.414 11.5365 26.2903 11.5683 26.0547 11.5819C25.5109 11.609 25.4747 11.5864 25.5743 11.3009C25.6786 10.9973 25.665 10.8251 25.529 10.6258C25.4656 10.5306 25.4248 10.4309 25.4384 10.3992C25.4656 10.3222 26.3718 9.86451 27.2101 9.50201C29.3081 8.60029 30.6856 8.32389 33.2458 8.30123C33.6218 8.2967 33.9436 8.30576 33.9526 8.32389ZM34.6187 8.34654C34.6187 8.37826 34.5281 8.85404 34.4194 9.40232C34.3106 9.95061 34.1837 10.594 34.1429 10.8297C34.0976 11.0653 34.0478 11.2783 34.0297 11.2964C33.9934 11.3417 33.2186 11.3508 33.1778 11.31C33.1506 11.2828 33.7487 9.59717 34.2064 8.41451C34.2472 8.31029 34.2789 8.29217 34.4375 8.29217C34.5508 8.29217 34.6187 8.31482 34.6187 8.34654ZM36.0687 8.33748C37.3375 8.41451 38.9687 8.57764 39.9158 8.72717C40.6725 8.84951 42.2811 9.20295 42.9789 9.40232C43.7945 9.63795 44.7234 9.97326 44.6917 10.0276C44.6826 10.0458 44.6283 10.0503 44.5739 10.0322C44.4833 10.005 44.4833 10.0095 44.5376 10.0775C44.5829 10.1319 44.6373 10.1454 44.7144 10.1273L44.8231 10.1001L44.6781 10.3629C44.4878 10.6937 44.1933 11.1333 44.1298 11.1695C44.1026 11.1876 43.9123 11.1876 43.7039 11.1695C43.3867 11.1423 43.3233 11.1242 43.3051 11.0517C43.2734 10.9384 43.1103 10.9384 43.0786 11.0517C43.0514 11.1559 42.9517 11.1604 37.9809 11.2647C35.5069 11.3145 34.3695 11.3236 34.3378 11.2919C34.3061 11.2601 34.3786 10.7844 34.5779 9.76936L34.8679 8.29217H35.0945C35.2214 8.29217 35.6564 8.31482 36.0687 8.33748ZM28.4064 8.44623C28.3973 8.45529 28.2251 8.51873 28.0258 8.5867C26.9836 8.9492 25.5381 9.63342 23.3495 10.7934C21.9811 11.5139 21.1654 11.8764 20.9117 11.8673C20.8618 11.8673 21.025 11.7858 21.2742 11.6861C21.5234 11.5909 22.7378 11.0019 23.9703 10.3811C26.3628 9.17576 27.115 8.82686 27.84 8.58217C28.2433 8.44623 28.4653 8.39186 28.4064 8.44623ZM45.8879 8.81779C46.9709 9.14857 48.6294 9.70592 48.6067 9.72857C48.584 9.7467 48.2397 9.65154 46.0828 9.01264C45.4484 8.82232 44.95 8.65467 44.95 8.62748C44.95 8.56404 45.3079 8.63654 45.8879 8.81779ZM45.2853 10.0458C45.3034 10.0865 45.2672 10.2089 45.2128 10.3131C45.0995 10.5261 44.5422 11.2329 44.4833 11.2375C44.4651 11.2375 44.5467 11.0879 44.669 10.9067C44.95 10.4898 45.0859 10.227 45.0859 10.0911C45.0859 10.0322 45.0995 9.97326 45.1131 9.95514C45.1539 9.91436 45.2581 9.96873 45.2853 10.0458ZM53.514 10.9248C54.1983 10.9973 54.9731 11.0744 55.2359 11.0879C55.6936 11.1106 55.8703 11.1695 55.8703 11.2919C55.8703 11.3145 55.6528 11.3236 55.3854 11.319C55.0048 11.31 54.9006 11.2919 54.9097 11.2465C54.9142 11.2103 54.887 11.1922 54.8417 11.2012C54.7919 11.2103 54.7556 11.2647 54.7465 11.3417L54.7329 11.464L53.2059 11.455L51.6789 11.4504L53.0156 11.4097C54.4973 11.3689 54.6242 11.3553 54.665 11.2556C54.7148 11.1287 54.6469 11.1015 54.3161 11.1015C53.9536 11.1015 53.0745 11.0019 52.4492 10.8931C52.0187 10.8161 51.774 10.73 52.0867 10.7662C52.1864 10.7753 52.8298 10.8478 53.514 10.9248ZM25.1937 11.1469C25.1937 11.2375 25.2118 11.3281 25.239 11.3553C25.3115 11.4278 25.2209 11.5094 24.9989 11.5773C24.8811 11.6136 24.7859 11.6317 24.7859 11.6181C24.7859 11.6045 24.8493 11.5411 24.9218 11.4776C25.0714 11.3553 25.094 11.2329 24.9898 11.1469C24.9309 11.097 24.9309 11.0789 25.0215 10.9928C25.1439 10.8795 25.1937 10.9203 25.1937 11.1469ZM43.8353 11.5501L44.2386 11.5773L44.0392 11.7495C43.9304 11.8447 43.79 11.967 43.7265 12.0259C43.6359 12.1029 43.5181 12.1392 43.1601 12.18C42.0862 12.3114 40.2148 12.8687 39.3267 13.3264C39.1047 13.4351 39.0911 13.5258 39.304 13.4895C39.5306 13.4533 40.1604 13.1497 40.1242 13.0953C40.1061 13.0681 40.1559 13.05 40.2511 13.05C40.3326 13.05 40.7269 12.9594 41.1256 12.8506C42.2222 12.547 43.21 12.3476 43.3504 12.402C43.3867 12.4156 43.3414 12.5062 43.2145 12.6512C42.8384 13.0953 42.5348 13.4125 42.4804 13.4125C42.4533 13.4125 42.3944 13.4804 42.3581 13.5665C42.2811 13.7251 41.5244 14.7492 41.2479 15.0664C41.1619 15.1661 40.9308 15.4697 40.7359 15.7461C40.3734 16.2626 40.2239 16.4258 40.0472 16.5119C39.9837 16.5436 39.9158 16.6478 39.8659 16.7883L39.7889 17.0148L39.7844 16.7339C39.7844 16.4575 39.7209 16.3306 39.6439 16.4529C39.6212 16.4892 39.6031 16.607 39.6031 16.7203C39.6031 16.9559 39.5487 17.0329 39.3811 17.042C39.2678 17.0465 39.2723 17.0511 39.3992 17.0828C39.5351 17.119 39.5351 17.119 39.3629 17.1236C39.2678 17.1236 39.1319 17.0964 39.0548 17.0601C38.9823 17.0194 38.9008 17.0012 38.8781 17.0148C38.8283 17.0465 36.7348 17.1689 35.7062 17.2006C35.3211 17.2097 34.4783 17.2459 33.8393 17.2776C32.8062 17.3275 32.6658 17.3229 32.6386 17.264C32.5343 17.0329 32.5978 13.5394 32.7156 13.1315L32.7609 12.9684L33.0917 12.9412C33.7306 12.8869 33.7533 12.8823 33.5086 12.8733L33.282 12.8597L33.4633 12.8008C33.6445 12.7419 33.64 12.7419 33.2458 12.7373C32.8515 12.7328 32.847 12.7328 32.8787 12.6286C32.9195 12.4972 33.205 12.0758 33.3998 11.8628L33.5539 11.6951L36.1594 11.6498C37.5912 11.6272 39.0911 11.6181 39.4898 11.6362L40.2148 11.6679L40.2284 11.8854C40.2601 12.3658 40.0698 12.4564 38.7648 12.5969C38.3706 12.6376 35.1715 12.7328 34.1973 12.7328C33.9028 12.7328 33.8484 12.7464 33.8484 12.8053C33.8484 12.8733 34.0795 12.8778 36.6714 12.8551C38.2256 12.8415 39.5623 12.8098 39.6484 12.7872L39.807 12.7419L39.6484 12.7328C39.517 12.7237 39.5351 12.7147 39.7844 12.6603C40.174 12.5742 40.2873 12.4836 40.4006 12.1664C40.5094 11.8628 40.6589 11.7178 40.9308 11.6408C41.2797 11.5456 43.0106 11.4867 43.8353 11.5501ZM55.8658 11.9398C55.8431 12.1664 55.8069 12.5289 55.7887 12.7554L55.7525 13.1633L55.5803 12.6195C55.4806 12.3204 55.3673 12.0033 55.3265 11.9172C55.1453 11.5547 55.1453 11.5592 55.5395 11.5456C55.7344 11.5365 55.8975 11.532 55.902 11.532C55.9065 11.5365 55.8929 11.7178 55.8658 11.9398ZM18.8183 11.754L18.995 11.8129L18.6823 11.8401C18.5147 11.8583 18.1929 11.8719 17.9664 11.8673H17.5586L17.7851 11.8039C18.2564 11.677 18.5645 11.6634 18.8183 11.754ZM33.0554 11.7314L33.2367 11.7676L33.0011 11.9987C32.8697 12.1301 32.7609 12.257 32.7609 12.2797C32.7609 12.3069 32.7292 12.3386 32.6929 12.3522C32.6567 12.3658 32.6159 12.4156 32.6023 12.4609C32.5343 12.6739 32.1265 12.7237 29.6797 12.8234C28.2931 12.8778 23.064 13.0772 21.8768 13.1225C21.3331 13.1406 21.0703 13.1361 21.0703 13.1044C21.0703 13.0817 21.1337 12.9231 21.2062 12.7554C21.3648 12.3975 21.3648 12.4111 21.2651 12.4473C21.1156 12.4972 21.0295 12.6059 20.9479 12.8325C20.9026 12.9594 20.8256 13.0908 20.7758 13.1225C20.6761 13.1859 19.8876 13.2358 17.2187 13.349C15.8956 13.4034 15.5059 13.4351 15.4515 13.485C15.3972 13.5394 15.5195 13.5484 16.3351 13.5484C17.2051 13.5484 19.5161 13.4578 20.4268 13.3853L20.8029 13.3581L20.7803 13.5122C20.7667 13.5937 20.735 13.8837 20.7078 14.1556C20.6806 14.4275 20.6353 14.6903 20.6126 14.7356C20.5764 14.8081 20.5039 14.8172 20.0598 14.8217C19.7789 14.8262 19.3076 14.8444 19.0086 14.8625L18.4648 14.8897L19.2125 14.9078C19.9193 14.9259 19.9375 14.9259 19.5297 14.9531C19.1536 14.9758 19.1943 14.9803 19.8831 14.9894L20.6625 14.9984V15.1072C20.6625 15.1661 20.6308 15.2295 20.59 15.2431C20.5492 15.2567 20.232 15.2703 19.8786 15.2703C18.8636 15.2748 18.0343 15.3383 17.9528 15.4198C17.8893 15.4833 17.9165 15.524 18.1839 15.805C18.3515 15.9772 18.4875 16.1494 18.4875 16.1856C18.4875 16.2264 18.5826 16.3306 18.705 16.4167C19.0222 16.6478 19.072 16.6614 18.8953 16.4756C18.7639 16.3351 18.7503 16.3034 18.8047 16.2672C18.8817 16.2173 19.9375 16.2083 20.3951 16.249L20.6987 16.2808L20.7259 16.4892C20.7803 16.8653 20.812 17.4906 20.7803 17.4906C20.6897 17.4906 20.0598 17.119 19.2442 16.5753C18.8228 16.2989 18.6778 16.2309 18.9315 16.4303C19.0176 16.4983 19.1037 16.5979 19.1218 16.6569C19.1445 16.7158 19.1853 16.7656 19.2125 16.7656C19.2397 16.7656 19.2487 16.7429 19.2351 16.7203C19.2215 16.6931 19.2306 16.675 19.2533 16.675C19.2804 16.675 19.3031 16.7158 19.3031 16.7656C19.3031 16.8698 19.5025 17.0148 19.5976 16.974C19.6384 16.9604 19.6656 16.974 19.6656 17.0058C19.6656 17.0873 19.8423 17.2142 20.3498 17.4906C20.5854 17.622 20.7893 17.7398 20.8075 17.7579C20.8528 17.7987 20.9978 18.5736 20.9661 18.6053C20.9298 18.6415 19.0539 18.7095 17.989 18.714H17.0556L16.9786 18.1114C16.8834 17.3773 16.7792 16.9559 16.539 16.3397C16.317 15.7733 16.104 15.4334 15.7053 15.0075C15.3156 14.5997 15.0165 14.3731 14.5634 14.142C13.5212 13.6209 12.1981 13.5076 11.0336 13.8429C10.2859 14.0604 9.65154 14.3822 9.65154 14.5453C9.65154 14.5951 9.62888 14.645 9.59716 14.6631C9.56091 14.6858 9.55638 14.6722 9.5745 14.6223C9.5881 14.577 9.5881 14.5453 9.56544 14.5453C9.50654 14.5453 8.92654 15.1751 8.92654 15.2386C8.92654 15.2703 8.87669 15.3654 8.81325 15.4515C8.74982 15.5376 8.69997 15.5875 8.69997 15.5694C8.69997 15.5512 8.74075 15.4742 8.79513 15.3972C8.8495 15.3247 8.88122 15.2567 8.86763 15.2431C8.82685 15.1978 8.46435 15.7461 8.26497 16.1629C8.00669 16.6976 7.8481 17.4272 7.81185 18.2111C7.79372 18.6189 7.79825 18.7639 7.8345 18.714C7.87075 18.6642 7.88435 18.7412 7.88435 19.0086C7.88435 19.2079 7.89794 19.4209 7.91154 19.4844C7.93419 19.575 7.92513 19.584 7.88888 19.5297C7.84357 19.4708 7.8345 19.4708 7.79372 19.5297C7.75747 19.5886 7.6306 19.5976 7.01435 19.584C5.88154 19.5659 5.56435 19.5206 5.36044 19.3665L5.19279 19.2397L5.66404 19.1853C6.13982 19.1309 6.47966 19.0312 6.47966 18.9451C6.47966 18.9179 6.58841 18.8228 6.72435 18.7367C7.13669 18.4603 7.3995 17.989 7.45841 17.4045C7.51279 16.9197 7.33154 16.8608 6.06279 16.9378C4.97075 17.0058 4.92091 17.0284 4.64904 17.5994C4.54029 17.8304 4.41341 18.0479 4.3681 18.0797C4.2956 18.1431 4.29107 18.134 4.31825 17.9437C4.36357 17.5948 4.53122 17.1281 4.6581 16.9876C4.79857 16.8336 5.09763 16.7429 5.65497 16.6931C6.022 16.6569 6.13529 16.5889 5.83622 16.5753C5.64591 16.5708 5.64591 16.5708 5.8906 16.539L6.13982 16.5073L5.86341 16.5028C5.53263 16.4937 4.84841 16.607 4.67169 16.6976C4.48138 16.7928 4.39075 16.9604 4.21404 17.5586L4.04638 18.1023L3.73825 18.1159L3.43013 18.1295L3.46185 18.0026C3.47544 17.9347 3.50263 17.6356 3.52075 17.3456L3.54794 16.8109L3.77904 16.6795C3.91044 16.607 4.03732 16.5164 4.07357 16.4801C4.14154 16.3986 4.2095 15.737 4.21404 15.1706C4.21404 14.6767 4.14154 14.5679 3.76544 14.5C3.6295 14.4728 3.51169 14.4456 3.4981 14.4365C3.43919 14.3776 4.68529 13.8475 5.25622 13.6889C6.83763 13.2494 8.32841 12.9684 10.7617 12.6467C13.4986 12.2842 16.9559 11.9806 18.8273 11.9398C20.1867 11.9126 19.6112 11.9806 17.1734 12.1437C12.982 12.4201 10.4898 12.6965 8.11091 13.1451C6.95091 13.3672 5.3831 13.8294 4.87107 14.1058C4.62185 14.2372 4.59919 14.2644 4.60372 14.3958C4.61279 14.5725 4.83482 14.9123 4.98888 14.9848C5.11575 15.0437 5.72294 15.012 6.84216 14.8806C7.77107 14.7764 8.02029 14.7084 8.32388 14.4819C8.77247 14.1511 9.23013 13.6934 9.42044 13.3898C9.52466 13.2267 9.62888 13.0953 9.65607 13.0953C9.68325 13.0953 10.2406 13.0228 10.8931 12.9367C12.8959 12.6694 14.1783 12.5561 17.8531 12.325C20.0961 12.1845 20.88 12.1029 21.2878 11.9851C21.4237 11.9444 21.5415 11.9217 21.5506 11.9308C21.6004 11.9806 21.469 12.189 21.3603 12.2434C21.2923 12.2751 21.2243 12.3295 21.2153 12.3612C21.2017 12.4111 21.2153 12.4156 21.2923 12.3748C21.3422 12.3431 21.3875 12.334 21.3875 12.3476C21.3875 12.3658 21.4418 12.334 21.5053 12.2842C21.5733 12.2298 21.7001 12.1709 21.7908 12.1437C21.9403 12.1075 24.5548 11.9897 28.0258 11.8719C29.5165 11.822 31.7323 11.7404 32.1265 11.7178C32.6386 11.6951 32.8787 11.6951 33.0554 11.7314ZM53.7723 11.9897C53.8312 12.0078 53.8629 12.0395 53.8448 12.0758C53.8312 12.112 53.8811 12.1664 53.9672 12.2117C54.0487 12.2525 54.1031 12.2933 54.094 12.3023C54.0895 12.3069 53.9808 12.2978 53.8539 12.2797C53.5729 12.2298 53.3509 12.2253 53.3917 12.2661C53.4098 12.2797 53.3826 12.3204 53.3328 12.3567C53.2014 12.4473 53.2195 12.5244 53.4144 12.7419L53.582 12.9322L53.4325 12.8234C53.3509 12.76 53.2014 12.6059 53.1017 12.4745C52.9159 12.2389 52.7392 12.1301 52.7075 12.2298C52.6984 12.2615 52.5489 12.2797 52.2906 12.2797C52.0142 12.2797 51.8828 12.2978 51.8692 12.334C51.8556 12.3703 51.842 12.3612 51.842 12.3159C51.8375 12.2751 51.8737 12.2162 51.919 12.1936C51.9915 12.1483 51.9915 12.1483 51.919 12.1437C51.7786 12.1437 51.7922 12.0667 51.9417 11.9897C52.0686 11.9217 52.1909 11.9172 52.8797 11.9398C53.3147 11.9534 53.7179 11.9761 53.7723 11.9897ZM51.7604 12.4383C52.0051 12.7147 52.6259 13.1451 53.0156 13.3037C53.1606 13.3626 53.4687 13.4306 53.7044 13.4623C54.6604 13.5756 54.674 13.5801 54.1711 13.5983L53.7179 13.6119L54.0804 13.639L54.4429 13.6662L54.0895 13.6753C53.8675 13.6798 53.7451 13.7025 53.7633 13.7297C53.7814 13.7569 54.1167 13.775 54.6287 13.775H55.4625L55.5622 13.5711C55.6165 13.4578 55.689 13.3672 55.7208 13.3672C55.7525 13.3672 55.8159 13.4442 55.8567 13.5348C55.8975 13.63 56.0379 13.9381 56.1739 14.2236C56.3053 14.5045 56.414 14.7447 56.414 14.7537C56.414 14.7628 56.2554 14.7673 56.0651 14.7628C55.7253 14.7583 55.7208 14.7583 55.9609 14.7311C56.1965 14.7039 56.1784 14.6994 55.6664 14.645C54.5608 14.5272 54.1076 14.364 53.0065 13.6934C52.712 13.5167 52.4719 13.3944 52.4719 13.4261C52.4673 13.4533 52.4175 13.417 52.3586 13.3445C52.2951 13.2675 52.2453 13.2358 52.2453 13.272C52.2453 13.3083 52.2317 13.3264 52.2181 13.3128C52.2045 13.2947 52.1909 13.2675 52.1954 13.2448C52.1954 13.1814 52.0051 13.0047 51.9372 13.0047C51.8828 13.0047 51.8828 13.0137 51.9326 13.0817C51.9779 13.1315 51.9779 13.1451 51.9417 13.1225C51.842 13.0636 51.8828 13.1587 51.987 13.2358C52.0414 13.2765 52.2997 13.4533 52.5625 13.6254C53.9309 14.5408 54.5472 14.7583 55.9745 14.8444C56.3823 14.867 56.5047 14.8897 56.5047 14.9395C56.5047 15.0845 56.405 15.9092 56.3415 16.2626C56.3053 16.4711 56.2781 16.829 56.2781 17.0556C56.2781 17.2822 56.26 17.4951 56.2373 17.5269C56.1694 17.6401 56.0153 17.3683 55.9383 17.0012C55.8975 16.8109 55.8567 16.6297 55.8476 16.607C55.8295 16.5526 55.8069 17.0964 55.8159 17.2776C55.8295 17.4589 55.9519 17.6764 56.0561 17.7036C56.1014 17.7172 56.1422 17.7534 56.1422 17.7851C56.1422 17.8667 55.689 18.27 55.6256 18.2473C55.5939 18.2337 55.5758 17.9528 55.5758 17.3547C55.5758 16.3578 55.612 16.4394 55.1408 16.3804C54.8145 16.3397 52.5036 16.4303 50.9358 16.539C50.2515 16.5889 49.6897 16.6251 49.6897 16.6206C49.6851 16.6115 49.6444 16.4937 49.599 16.3578C49.2547 15.3337 48.3167 14.4003 47.1386 13.9109C46.5223 13.6526 46.3547 13.63 45.2762 13.6481C44.3473 13.6662 44.2703 13.6753 43.9078 13.7931C43.2508 14.0106 42.6164 14.3731 42.4759 14.6133C42.4533 14.6586 42.34 14.7673 42.2312 14.8579C42.059 15.0029 42.0409 15.0075 42.0953 14.9078L42.1542 14.7945L42.0273 14.9078C41.8189 15.0981 41.5062 15.5331 41.5289 15.5965C41.5425 15.6283 41.5244 15.6962 41.4881 15.7461C41.4247 15.8322 41.4201 15.8322 41.4473 15.7234L41.47 15.6101L41.3975 15.7098C41.1165 16.0859 40.8084 16.9423 40.6997 17.6265L40.6226 18.125L40.4867 18.1476C40.4142 18.1567 40.0879 18.1794 39.7617 18.1929L39.1726 18.2201L39.3765 18.0117C39.4898 17.8984 39.6258 17.7942 39.6801 17.7806C39.7481 17.7625 39.8115 17.6673 39.9067 17.4317C39.9928 17.2142 40.0653 17.0919 40.1378 17.0601C40.1922 17.0375 40.2375 16.9922 40.2375 16.9695C40.2375 16.8562 41.7192 14.8262 42.127 14.3776C42.2222 14.2734 42.3037 14.1601 42.3128 14.1284C42.3354 14.0378 42.5122 13.8656 42.5801 13.8656C42.6119 13.8656 42.639 13.8294 42.639 13.784C42.639 13.6979 42.7433 13.562 43.3595 12.8461C43.7764 12.3612 43.7945 12.3476 44.0165 12.3114C44.37 12.257 46.8123 12.2026 49.3 12.1981L51.5429 12.189L51.7604 12.4383ZM52.5851 12.4564C52.6803 12.4609 52.8253 12.547 53.0609 12.7373C53.2467 12.8914 53.4642 13.0454 53.5367 13.0772L53.6726 13.1361H53.5367C53.3509 13.1406 52.9522 12.9684 52.5444 12.7147C52.1411 12.4654 52.1048 12.4201 52.3042 12.4383C52.3812 12.4473 52.5126 12.4519 52.5851 12.4564ZM32.4709 13.1134C32.3667 13.5303 32.3033 16.6342 32.3893 17.0375C32.4075 17.1236 32.4165 17.2369 32.4075 17.2912C32.3939 17.3819 32.3758 17.3864 31.8229 17.3637C31.5012 17.3501 31.0617 17.3637 30.817 17.3954C30.5768 17.4272 30.0512 17.4679 29.6479 17.4815C29.2447 17.4997 28.9003 17.5314 28.8867 17.545C28.7553 17.6764 29.154 17.699 30.6086 17.6401C31.2928 17.6129 31.3698 17.6039 31.3925 17.5269C31.4151 17.4272 31.4604 17.4226 31.5375 17.5133C31.5692 17.5495 31.6145 17.5812 31.6372 17.5812C31.6643 17.5812 31.6734 17.5495 31.6553 17.5133C31.6372 17.4589 31.6734 17.4453 31.8637 17.4453C32.0812 17.4453 32.0903 17.4498 32.0087 17.5133C31.9317 17.5722 31.9408 17.5767 32.1537 17.5812C32.4256 17.5812 32.4392 17.5948 32.4754 18.0389C32.4936 18.2292 32.4845 18.3515 32.4528 18.3697C32.3984 18.4014 29.5211 18.5101 27.3914 18.5645C26.1362 18.5917 25.7964 18.6506 26.757 18.6687C27.0062 18.6733 27.3234 18.6959 27.4593 18.714C27.5953 18.7367 26.9383 18.7412 25.9867 18.7276C24.3645 18.705 23.8842 18.6823 24.4959 18.6597C24.6409 18.6506 23.9703 18.637 22.9961 18.6234L21.2289 18.6008L21.17 18.2247C21.1337 18.0162 21.1156 17.8395 21.1247 17.8304C21.1337 17.8214 21.3422 17.8304 21.5914 17.8531C21.8406 17.8758 22.4568 17.8939 22.9643 17.8984C23.7301 17.8984 23.8797 17.8894 23.8797 17.835C23.8797 17.7444 23.6893 17.7262 22.475 17.6945C21.3014 17.6673 21.1609 17.6447 21.0839 17.4906C21.0386 17.3864 20.9298 16.3125 20.9661 16.2717C20.9751 16.2581 21.2697 16.2309 21.6276 16.2128C22.552 16.1584 22.6245 16.1086 22.2847 15.7415C21.9901 15.4244 21.7681 15.3111 21.3558 15.2839C21.1609 15.2703 20.9661 15.2386 20.9253 15.2159C20.8075 15.157 20.8256 15.0483 20.957 15.0165C21.1156 14.9758 21.8315 15.08 22.049 15.1751C22.1533 15.2204 22.4251 15.4379 22.6608 15.6509C23.1547 16.1086 23.2453 16.172 23.2453 16.0542C23.2453 15.9228 22.4387 15.1661 22.1578 15.0301C22.0218 14.9667 21.7454 14.8897 21.5461 14.8579C21.3467 14.8308 21.1247 14.79 21.0476 14.7719L20.9117 14.7447V14.3595C20.9117 14.1511 20.9298 13.8429 20.9479 13.6798L20.9842 13.3808L21.4147 13.349C22.62 13.272 22.7287 13.2584 22.5429 13.2267C22.4025 13.204 22.4478 13.1995 22.7333 13.1904C22.9372 13.1904 23.1093 13.1995 23.1184 13.2176C23.1275 13.2403 23.7347 13.2312 24.4687 13.204C25.2028 13.1723 26.5893 13.127 27.55 13.0998C28.5106 13.0681 29.3579 13.0409 29.4304 13.0319C29.5075 13.0273 30.2279 13.0137 31.0345 13.0137L32.4981 13.0047L32.4709 13.1134ZM9.212 13.3219C9.17122 13.4804 9.08513 13.5167 8.93107 13.4397C8.85857 13.3989 8.75888 13.3672 8.71357 13.3672C8.59122 13.3672 8.7045 13.2856 8.85857 13.2629C9.18482 13.2176 9.23466 13.2267 9.212 13.3219ZM52.7211 13.5937C52.8298 13.6708 52.934 13.7523 52.9522 13.7795C52.9658 13.8067 52.8661 13.7523 52.7256 13.6572C52.5851 13.5665 52.4719 13.485 52.4719 13.4759C52.4719 13.4351 52.5353 13.4669 52.7211 13.5937ZM8.74529 13.7976C8.80872 13.8747 8.55497 14.0922 8.39638 14.0922C8.32841 14.0922 8.23779 14.1239 8.19247 14.1692C8.11544 14.2372 8.11091 14.2326 8.11091 14.0151C8.11091 13.784 8.11091 13.784 8.2831 13.7433C8.48247 13.6934 8.67732 13.7161 8.74529 13.7976ZM46.4498 13.9064C46.8622 14.0015 47.3515 14.1919 47.7503 14.4094C47.9406 14.5136 48.0131 14.5317 48.0403 14.4909C48.0675 14.4456 48.0765 14.4501 48.0765 14.5C48.0765 14.5408 48.2215 14.7129 48.3983 14.8851C49.0598 15.5376 49.4812 16.3125 49.6851 17.2595C49.7984 17.7806 49.8664 18.9678 49.7984 19.2759C49.7667 19.4436 49.7304 19.5206 49.7078 19.4844C49.6897 19.4526 49.6579 19.0856 49.6398 18.6733C49.5945 17.4725 49.4994 16.9559 49.1867 16.2853C48.6883 15.1933 47.7186 14.3912 46.5404 14.0876C46.0511 13.9608 44.7053 13.9653 44.2114 14.0876C43.1239 14.3686 42.1633 15.1162 41.5606 16.1494C41.4065 16.4122 41.2797 16.6704 41.2797 16.7203C41.2797 16.7701 41.2661 16.8109 41.2434 16.8109C41.2253 16.8109 41.1709 17.0601 41.1256 17.3637C41.0259 18.0117 40.9806 18.1703 40.8854 18.1703C40.8311 18.1703 40.822 18.134 40.8447 17.989C40.8583 17.8894 40.8854 17.7262 40.899 17.6265C40.9172 17.5042 40.9126 17.4453 40.8764 17.4453C40.8492 17.4453 40.8265 17.4045 40.8265 17.3501C40.8265 17.2958 40.8447 17.2731 40.8764 17.2867C40.9081 17.3094 40.9126 17.264 40.89 17.1508C40.8719 17.0375 40.8764 16.9876 40.9081 17.0058C40.9308 17.0239 40.967 16.9695 40.9851 16.8744C40.9987 16.7837 41.0622 16.6342 41.1165 16.5436C41.2525 16.3306 41.5787 15.6826 41.615 15.5603C41.6331 15.5059 41.6875 15.4244 41.7419 15.379C41.837 15.2929 41.837 15.2929 41.7826 15.3972C41.6965 15.5648 41.7509 15.5603 41.8778 15.3972C41.9865 15.2567 42.9336 14.287 42.8837 14.3686C42.8429 14.4411 42.9381 14.4094 43.3006 14.2462C43.6994 14.065 44.2929 13.8837 44.7008 13.8203C45.104 13.7614 46.0058 13.8022 46.4498 13.9064ZM7.94779 13.8928C7.9931 14.0151 7.9795 14.2961 7.9206 14.3731C7.88888 14.4139 7.77107 14.4728 7.65779 14.5C7.5445 14.5272 7.41763 14.5634 7.37232 14.5725C7.30888 14.5906 7.327 14.5362 7.45841 14.287C7.55357 14.1194 7.65779 13.9426 7.69404 13.8973C7.78013 13.8022 7.91154 13.7976 7.94779 13.8928ZM13.0953 13.8883C13.6028 13.9653 14.1103 14.1239 14.5453 14.3414C14.8942 14.5181 14.944 14.5317 14.8625 14.432C14.8126 14.3731 14.8172 14.3686 14.8806 14.3912C14.9214 14.4048 14.9531 14.4365 14.9531 14.4547C14.9531 14.5136 15.1842 14.7719 15.234 14.7719C15.2612 14.7719 15.2522 14.7401 15.2204 14.6948C15.1026 14.5544 15.3247 14.7039 15.4742 14.867C15.5512 14.9531 15.5693 14.9894 15.5195 14.9486C15.1887 14.6858 15.3654 14.8897 15.7551 15.2204C15.8231 15.2794 15.8458 15.302 15.805 15.2703C15.7597 15.2386 15.7234 15.2295 15.7234 15.2522C15.7234 15.3156 15.9183 15.4969 15.9908 15.5014C16.0361 15.5014 16.0406 15.5104 16.0089 15.5286C15.9681 15.5422 16.0043 15.6554 16.1267 15.8956C16.2218 16.0859 16.3578 16.3986 16.4212 16.5844C16.7022 17.3547 16.9333 18.6144 16.8154 18.6869C16.7429 18.7322 16.6976 18.5826 16.5843 17.8984C16.3623 16.5345 15.9001 15.6011 15.1253 14.9531C14.7039 14.5997 14.3822 14.4184 13.852 14.2372C13.4215 14.0876 13.34 14.0786 12.7101 14.0559C11.6 14.0242 10.9293 14.1647 10.1636 14.5951C9.68325 14.867 9.06247 15.4878 8.79513 15.9681C8.36466 16.7294 8.2106 17.3909 8.16075 18.6959C8.14263 19.1762 8.11544 19.5886 8.09279 19.6067C8.01122 19.6883 7.97497 19.4662 7.97497 18.8726C7.97497 17.5042 8.2106 16.5209 8.73622 15.7325C8.85404 15.5558 9.1395 15.2159 9.3706 14.9803C9.59716 14.7401 9.78747 14.5226 9.78747 14.4909C9.78747 14.4456 9.79654 14.4456 9.82825 14.4909C9.85544 14.5362 9.92794 14.5136 10.159 14.3912C10.6122 14.142 11.2873 13.9381 11.9398 13.852C12.2479 13.8112 12.692 13.8248 13.0953 13.8883ZM6.79232 13.9336C6.91919 13.997 7.00529 14.1737 6.94185 14.2326C6.92372 14.2508 6.79685 14.2734 6.66091 14.2825C6.42982 14.2961 6.41169 14.287 6.3981 14.1919C6.37997 14.065 6.50232 13.8656 6.59747 13.8656C6.63372 13.8656 6.72435 13.8973 6.79232 13.9336ZM6.11716 14.364C6.11716 14.6948 6.07638 14.7265 5.60513 14.7265C5.27888 14.7265 5.26075 14.722 5.14294 14.5861C5.0795 14.5045 5.04325 14.4275 5.06138 14.4094C5.0795 14.3912 5.25169 14.3323 5.43747 14.2779C5.62325 14.2236 5.82716 14.1601 5.8906 14.1375C6.10357 14.065 6.11716 14.0786 6.11716 14.364ZM13.1406 14.5544C13.7931 14.6722 14.3912 15.0256 14.9486 15.6147C15.5829 16.2853 15.8956 16.9876 15.9364 17.8531C16.0089 19.2306 15.2884 20.4994 14.0423 21.2017L13.7886 21.3422H12.3793H10.9701L10.7526 21.2244C9.97325 20.7939 9.28904 19.9919 9.02169 19.1808C8.69091 18.1975 8.74075 17.3547 9.18482 16.4756C9.92341 14.9939 11.4731 14.2417 13.1406 14.5544ZM46.0964 14.6858C46.6175 14.7809 47.2111 15.1026 47.6778 15.5376C48.439 16.249 48.8151 17.0964 48.8106 18.0978C48.8015 19.4753 48.0675 20.667 46.8576 21.2651L46.5586 21.4101L45.3079 21.4237L44.0573 21.4419L43.6994 21.2425C43.1783 20.957 42.4578 20.232 42.195 19.7245C41.8642 19.0901 41.7283 18.3515 41.8189 17.7036C42.0409 16.1176 43.2825 14.8489 44.814 14.6314C45.0904 14.5951 45.7565 14.6223 46.0964 14.6858ZM9.33435 14.8851C9.25279 14.9712 9.17122 15.0301 9.15763 15.0165C9.13497 14.9939 9.41591 14.7311 9.46575 14.7265C9.47935 14.7265 9.42044 14.799 9.33435 14.8851ZM3.52982 14.9395C3.53435 14.9214 3.5706 14.9214 3.61138 14.9486C3.66575 14.9758 3.702 14.9712 3.74279 14.9214C3.83794 14.7854 3.89232 14.8987 3.81982 15.0981C3.72919 15.3609 3.79263 16.1765 3.90138 16.1765C3.92404 16.1765 3.94216 16.2083 3.94216 16.2445C3.94216 16.2898 3.89685 16.3125 3.80622 16.3125C3.64763 16.3125 3.6295 16.3714 3.7745 16.4348L3.87419 16.4801L3.76997 16.5119C3.71107 16.5345 3.65216 16.5345 3.63857 16.5209C3.62497 16.5073 3.56607 16.3215 3.50716 16.1131C3.42107 15.7733 3.41654 15.7279 3.47544 15.7053C3.54794 15.6781 3.54341 15.524 3.46638 14.9758C3.44825 14.8444 3.45279 14.8172 3.4845 14.8851C3.50716 14.935 3.52982 14.9576 3.52982 14.9395ZM4.03279 15.4334C4.03279 16.0814 3.97388 16.2128 3.92404 15.6826C3.89685 15.4062 3.96029 14.8172 4.01466 14.8172C4.02372 14.8172 4.03279 15.0936 4.03279 15.4334ZM15.3156 15.2476C15.3473 15.2839 15.3518 15.3156 15.3247 15.3156C15.302 15.3156 15.2567 15.2839 15.225 15.2476C15.1933 15.2114 15.1887 15.1797 15.2159 15.1797C15.2386 15.1797 15.2839 15.2114 15.3156 15.2476ZM20.1867 15.3881C19.8061 15.4606 18.9542 15.5286 18.9225 15.4923C18.8545 15.4289 18.7322 15.4425 18.6687 15.5195C18.6279 15.5694 18.5917 15.5739 18.5328 15.5422C18.4875 15.515 18.4195 15.5104 18.3833 15.524C18.3425 15.5376 18.2654 15.524 18.2065 15.4878C18.1114 15.4334 18.1476 15.4244 18.5554 15.4017C19.0675 15.3745 20.3272 15.3654 20.1867 15.3881ZM20.6036 15.5059C20.6308 15.5376 20.6625 15.6328 20.6761 15.7144L20.7078 15.8639L20.4903 15.6962C20.3725 15.6011 20.2592 15.5059 20.2365 15.4878C20.2093 15.4697 20.2728 15.4515 20.377 15.4515C20.4767 15.4515 20.5809 15.4787 20.6036 15.5059ZM21.7318 15.6056C21.8542 15.6736 22.0264 15.7869 22.1125 15.8639L22.2665 15.9953H21.6684C21.1292 15.9953 21.0612 15.9862 20.9797 15.9047C20.889 15.814 20.8618 15.66 20.9208 15.5195C20.9661 15.3972 21.4509 15.4515 21.7318 15.6056ZM20.1867 15.7461L20.3679 15.8322L20.1867 15.8639C20.087 15.882 19.7698 15.9001 19.4798 15.9001C18.9904 15.9047 18.7231 15.8594 18.5917 15.7551C18.4512 15.6509 18.6143 15.6237 19.2986 15.6419C19.8604 15.66 20.0417 15.6781 20.1867 15.7461ZM20.3951 16.0814L20.5039 16.172L19.9058 16.1765C19.3348 16.1765 19.0765 16.1358 19.0765 16.0451C19.0765 16.0225 19.3484 15.9998 19.6792 15.9998C20.2229 15.9908 20.2954 15.9998 20.3951 16.0814ZM55.4081 16.6206C55.5214 16.684 55.5531 16.8834 55.4398 16.8381C55.1589 16.7294 54.7511 16.7067 54.0759 16.7565C53.6908 16.7883 53.3373 16.829 53.2875 16.8562C53.1198 16.9469 53.1334 17.332 53.3192 17.69C53.4144 17.8758 53.8176 18.2972 54.0306 18.4286C54.2526 18.569 54.6604 18.714 54.8462 18.714C55.1136 18.7186 54.8644 18.7911 54.4883 18.8228C54.085 18.8545 52.4583 19.0856 50.9992 19.3212C50.4781 19.4073 50.0386 19.4708 50.0295 19.4617C50.0204 19.4526 50.0159 19.2533 50.0204 19.0222C50.0295 18.5283 49.9525 17.6039 49.8709 17.1644C49.812 16.8653 49.8165 16.8517 49.9072 16.8336C50.0658 16.7973 51.5248 16.6795 52.4719 16.6297C52.9567 16.6025 53.4778 16.5753 53.6273 16.5662C54.2164 16.5345 55.3039 16.5662 55.4081 16.6206ZM40.0789 16.897C40.0653 16.9242 40.029 16.9469 40.0019 16.9469C39.9747 16.9469 39.9747 16.9197 40.0109 16.8789C40.0744 16.8019 40.1287 16.82 40.0789 16.897ZM7.07779 17.1825C7.01888 17.2097 6.98263 17.2595 6.99622 17.2912C7.00982 17.3275 7.00075 17.3637 6.97357 17.3819C6.94638 17.3954 6.93732 17.4362 6.95091 17.4679C6.9645 17.5042 6.94185 17.554 6.9056 17.5858C6.86935 17.6129 6.85122 17.6492 6.86482 17.6628C6.87841 17.6764 6.86482 17.7126 6.8331 17.7489C6.79232 17.7987 6.79685 17.8304 6.85122 17.8848C6.9056 17.9347 6.91466 17.989 6.88294 18.0887C6.8331 18.2745 6.62919 18.5328 6.53404 18.5328C6.49325 18.5328 6.3981 18.5736 6.32107 18.6234C6.22591 18.6869 6.1081 18.714 5.93591 18.714C5.587 18.714 5.40122 18.6506 5.20638 18.4648C5.11575 18.3742 4.95263 18.2745 4.84388 18.2383C4.66263 18.1839 4.6581 18.1748 4.78044 18.1748C4.97075 18.1658 4.99794 18.1386 5.15654 17.8304C5.33779 17.4679 5.48279 17.3275 5.75919 17.264C5.96763 17.2142 6.63825 17.1462 7.02341 17.1372C7.17294 17.1326 7.17294 17.1372 7.07779 17.1825ZM55.9564 17.3592C56.0334 17.6175 55.9881 17.6311 55.902 17.3819C55.8612 17.264 55.8476 17.1734 55.8658 17.1734C55.8839 17.1734 55.9247 17.255 55.9564 17.3592ZM5.25169 17.2912C5.21997 17.332 5.12029 17.5087 5.02966 17.6854C4.78497 18.1658 4.63544 18.134 4.86654 17.6492C4.97075 17.4226 5.0795 17.3003 5.21091 17.2504C5.31513 17.2142 5.31513 17.2142 5.25169 17.2912ZM39.5079 17.3637C39.4173 17.545 38.9597 18.125 38.8736 18.1703C38.8283 18.1975 38.7512 18.2156 38.7014 18.2156C38.5836 18.2156 38.5745 18.2926 38.6878 18.3244C38.7286 18.3379 38.6833 18.3334 38.5836 18.3198C38.2754 18.2745 37.3148 18.279 35.1398 18.347C33.9934 18.3787 32.9965 18.4014 32.924 18.3923C32.77 18.3697 32.7383 18.2926 32.6884 17.7987L32.6567 17.4906H33.1733C33.4587 17.4906 34.2925 17.4589 35.0265 17.4226C37.5142 17.2912 37.8586 17.2776 38.7104 17.2686L39.5623 17.264L39.5079 17.3637ZM4.64904 18.5872C4.88013 18.8092 4.97982 18.8726 5.13388 18.8998C5.30607 18.927 5.29247 18.9315 5.0206 18.9361C4.69435 18.9406 4.58107 19.0312 4.89825 19.0312C5.01154 19.0312 5.07044 19.0494 5.05232 19.0765C5.01154 19.14 4.10075 19.0811 3.91044 19.004C3.81529 18.9678 3.71107 18.859 3.61138 18.705C3.34857 18.2881 3.33497 18.3062 3.87872 18.3062H4.35904L4.64904 18.5872ZM5.00247 18.5011C5.07044 18.5872 5.12029 18.6733 5.12029 18.6914C5.12029 18.7412 4.89825 18.5328 4.84388 18.4286C4.76685 18.2926 4.88013 18.3425 5.00247 18.5011ZM40.6453 19.1219V19.8922L29.3761 19.8876C23.1728 19.8831 17.8576 19.8695 17.5631 19.8514L17.0239 19.8242L17.0329 19.3711C17.0375 19.1219 17.0465 18.9179 17.0511 18.9134C17.0556 18.9089 17.9573 18.8953 19.0584 18.8862C20.7712 18.8726 21.0658 18.8817 21.1383 18.9406C21.2561 19.0403 22.04 19.0494 25.5698 18.9904C28.7281 18.9361 30.1917 18.8998 34.2109 18.782C37.6411 18.6778 38.434 18.637 38.8328 18.5328C39.2089 18.4331 39.7572 18.3651 40.2964 18.3561L40.6453 18.3515V19.1219ZM40.9897 18.7639C41.0304 19.2442 40.9761 19.8922 40.89 19.8922C40.8401 19.8922 40.8265 19.7608 40.8265 19.1536C40.8265 18.7458 40.8401 18.3969 40.8583 18.3787C40.9217 18.3198 40.9579 18.4286 40.9897 18.7639ZM16.8472 19.2487C16.8608 19.6339 16.8109 19.865 16.7067 19.8831C16.6342 19.8967 16.6297 19.8604 16.6568 19.4979C16.6886 18.9904 16.7112 18.8862 16.7792 18.9089C16.8109 18.9179 16.8381 19.0448 16.8472 19.2487ZM11.4187 21.5234C11.4187 21.5461 11.4006 21.5687 11.3734 21.5687C11.3508 21.5687 11.3281 21.5461 11.3281 21.5234C11.3281 21.4962 11.3508 21.4781 11.3734 21.4781C11.4006 21.4781 11.4187 21.4962 11.4187 21.5234ZM17.187 21.5098C17.1281 21.5189 17.0284 21.5189 16.9604 21.5098C16.8879 21.5008 16.9378 21.4917 17.0601 21.4917C17.187 21.4917 17.2414 21.5008 17.187 21.5098ZM13.4578 21.5687C13.4578 21.5914 13.4397 21.614 13.417 21.614C13.3898 21.614 13.3581 21.5914 13.3445 21.5687C13.3309 21.5415 13.349 21.5234 13.3853 21.5234C13.4261 21.5234 13.4578 21.5415 13.4578 21.5687ZM12.4473 21.7772C12.4337 21.7908 12.3929 21.7953 12.3612 21.7817C12.325 21.7681 12.3386 21.7545 12.3884 21.7545C12.4383 21.75 12.4654 21.7636 12.4473 21.7772Z" fill="black"/>
<path d="M4.39526 14.6268C4.39526 14.731 4.61729 15.0709 4.78948 15.2295L4.91636 15.3518L5.73198 15.311C8.79964 15.1706 8.83589 15.166 8.83589 15.089C8.83589 15.0074 8.62292 14.9893 8.09276 15.0256L7.54448 15.0663L7.90698 15.0935L8.26948 15.1162L7.78464 15.1252C7.49917 15.1298 7.29526 15.1162 7.2862 15.089C7.27714 15.0618 6.90558 15.0618 6.1987 15.0981C5.60511 15.1298 5.12933 15.1615 5.13839 15.1706C5.14745 15.1751 5.28339 15.2023 5.44198 15.2204L5.73198 15.2567L5.38308 15.2657C5.02058 15.2702 4.73511 15.2023 4.83933 15.1388C4.88011 15.1117 4.84386 15.0301 4.68979 14.8262C4.48136 14.5407 4.39526 14.4818 4.39526 14.6268Z" fill="black"/>
<path d="M16.4484 14.9531C16.5119 14.9713 16.6841 14.9939 16.8336 15.003L17.1055 15.0166L16.7656 15.0483C16.5436 15.071 16.6931 15.0755 17.2052 15.0664C17.6356 15.0574 18.0117 15.0347 18.0434 15.0166C18.1613 14.9441 17.8984 14.9124 17.1281 14.9169C16.6659 14.9169 16.3805 14.9305 16.4484 14.9531Z" fill="black"/>
<path d="M6.38894 16.4938C6.3391 16.5255 6.3391 16.5391 6.37988 16.5391C6.4116 16.5391 6.42519 16.5572 6.4116 16.5844C6.37988 16.6343 7.17738 16.6388 7.68035 16.5844C7.993 16.5527 7.98847 16.5527 7.47644 16.5391C6.99613 16.5255 6.97801 16.521 7.24988 16.4938C7.50363 16.4666 7.46738 16.4621 7.00066 16.4576C6.7016 16.453 6.42519 16.4712 6.38894 16.4938Z" fill="black"/>
<path d="M55.6799 16.8291C55.6573 16.9514 55.6482 17.1644 55.6482 17.3048L55.6527 17.5586L55.698 17.3366C55.7207 17.2142 55.7343 17.0013 55.7252 16.8608L55.7116 16.607L55.6799 16.8291Z" fill="black"/>
<path d="M25.751 17.6446C24.369 17.699 23.9249 17.7534 24.7904 17.7715L25.2616 17.7806L24.7858 17.8077L24.3101 17.8349L24.8991 17.8395C25.8869 17.8485 27.1919 17.7851 27.2282 17.7262C27.2508 17.6899 27.4638 17.6627 27.849 17.6537C28.2477 17.6401 28.3474 17.6446 28.1616 17.6673C27.9169 17.699 27.9305 17.7035 28.3338 17.699C28.5921 17.6945 28.7733 17.6763 28.7733 17.6492C28.7733 17.5857 27.3958 17.5812 25.751 17.6446Z" fill="black"/>
<path d="M8.38281 13.9063C8.38281 13.9607 8.41 14.0015 8.45531 14.0015C8.49609 14.0015 8.51875 13.9697 8.50969 13.9244C8.48703 13.8112 8.38281 13.7976 8.38281 13.9063Z" fill="black"/>
<path d="M6.63364 14.0514C6.58833 14.1284 6.69254 14.2145 6.75598 14.1511C6.81036 14.0967 6.77411 14.0015 6.70614 14.0015C6.68348 14.0015 6.65176 14.0242 6.63364 14.0514Z" fill="black"/>
<path d="M11.7813 14.9758C11.1107 15.1118 10.7255 15.3248 10.1954 15.8549C9.77849 16.2718 9.59724 16.5618 9.41599 17.1055C9.32989 17.3683 9.31177 17.5179 9.31177 17.9891C9.31177 18.4921 9.32536 18.6008 9.44317 18.9588C9.74677 19.8832 10.4718 20.6218 11.3825 20.939C12.2254 21.229 13.195 21.1248 13.988 20.658C14.3188 20.4632 14.8399 19.9421 15.0302 19.6204C15.3111 19.1401 15.4199 18.7549 15.4425 18.1205C15.4607 17.6357 15.4471 17.4998 15.3655 17.1962C14.935 15.6374 13.3582 14.6587 11.7813 14.9758ZM13.63 15.4335C13.8475 15.5287 13.843 15.5196 13.7569 15.6555C13.6844 15.7643 13.6754 15.7688 13.5485 15.7008C13.476 15.6646 13.3672 15.5649 13.3083 15.4879C13.118 15.2296 13.118 15.2115 13.2947 15.2885C13.3854 15.3293 13.5349 15.3927 13.63 15.4335ZM11.514 15.3927C11.4596 15.4969 11.2874 15.651 11.1515 15.7235C11.0654 15.7688 11.0382 15.7643 11.0065 15.719C10.934 15.6057 10.9838 15.5196 11.1922 15.4154C11.4415 15.2885 11.5774 15.2794 11.514 15.3927ZM13.0636 15.3701C13.0365 15.4018 13.0047 15.4607 12.9911 15.4969C12.9775 15.5377 12.964 15.5105 12.964 15.438C12.9594 15.3519 12.9821 15.3157 13.0319 15.3157C13.0863 15.3157 13.0954 15.3338 13.0636 15.3701ZM12.8552 15.6646C12.8416 15.7099 12.8325 15.6827 12.8325 15.6102C12.8325 15.5332 12.8416 15.5015 12.8552 15.5287C12.8643 15.5604 12.8643 15.6238 12.8552 15.6646ZM14.0922 15.7733C14.0922 15.8005 14.0741 15.8051 14.0469 15.7915C14.0243 15.7779 14.0016 15.7416 14.0016 15.719C14.0016 15.6918 14.0243 15.6873 14.0469 15.7008C14.0741 15.7144 14.0922 15.7507 14.0922 15.7733ZM11.949 15.8685C11.9354 15.9002 11.9263 15.8776 11.9263 15.8141C11.9263 15.7507 11.9354 15.728 11.949 15.7552C11.958 15.7869 11.958 15.8413 11.949 15.8685ZM13.3899 15.864C13.4896 15.9183 13.5802 15.9682 13.5893 15.9773C13.6074 15.9954 13.2449 16.4983 13.0727 16.6977L12.9549 16.8337L12.9775 16.6207C13.0138 16.3171 13.1407 15.7688 13.1769 15.7688C13.195 15.7688 13.2902 15.8141 13.3899 15.864ZM10.286 15.9093C10.2543 15.9591 10.2225 15.9908 10.209 15.9773C10.1954 15.9637 10.209 15.9229 10.2407 15.8821C10.3222 15.7869 10.3449 15.796 10.286 15.9093ZM11.0563 16.086C11.079 16.086 11.1016 16.1087 11.1016 16.1358C11.1016 16.163 11.0427 16.1404 10.9657 16.086C10.8841 16.0271 10.8297 15.9501 10.8297 15.8912C10.8297 15.8051 10.8433 15.8096 10.9204 15.9365C10.9702 16.018 11.0291 16.086 11.0563 16.086ZM11.6861 16.0498C11.7632 16.4213 11.8266 16.8246 11.8085 16.8427C11.7949 16.8608 11.4143 16.3579 11.2647 16.1223C11.1832 15.9999 11.1832 15.9999 11.3372 15.9048C11.5774 15.7598 11.6318 15.7824 11.6861 16.0498ZM10.5715 16.1449C10.4808 16.2446 10.1093 16.4258 10.073 16.3851C10.0413 16.3533 10.2225 16.1087 10.363 15.9954C10.4718 15.9093 10.4854 15.9093 10.5669 15.9773C10.644 16.0498 10.644 16.0588 10.5715 16.1449ZM13.8883 15.9954C13.843 16.0452 13.7977 16.0769 13.7841 16.0633C13.7524 16.0362 13.8657 15.9048 13.9246 15.9048C13.9472 15.9048 13.9336 15.9455 13.8883 15.9954ZM14.4819 16.0679C14.6632 16.2537 14.7493 16.4032 14.6858 16.4032C14.5771 16.4032 14.3732 16.2944 14.2418 16.1676C14.1058 16.0362 14.1013 16.0226 14.1738 15.9682C14.2871 15.8776 14.3143 15.8866 14.4819 16.0679ZM12.8099 16.0951C12.7963 16.1313 12.7827 16.1177 12.7827 16.0679C12.7782 16.018 12.7918 15.9908 12.8054 16.009C12.819 16.0226 12.8235 16.0633 12.8099 16.0951ZM11.1832 16.7113C11.3418 16.9424 11.4641 17.1418 11.455 17.1554C11.4415 17.1644 11.233 17.0512 10.9883 16.9016C10.7436 16.7566 10.5216 16.6252 10.4944 16.6162C10.4219 16.589 10.7482 16.2627 10.8297 16.2763C10.866 16.2854 11.0291 16.4802 11.1832 16.7113ZM14.1104 16.4077C14.1738 16.4848 14.2282 16.5708 14.2282 16.598C14.2282 16.6298 14.0877 16.7294 13.92 16.8201C13.7524 16.9107 13.5258 17.0421 13.4171 17.1101C13.2041 17.2415 13.2041 17.2279 13.4488 16.879C13.698 16.5301 13.911 16.2673 13.9563 16.2673C13.9744 16.2673 14.0469 16.3307 14.1104 16.4077ZM14.7719 16.5618C14.7719 16.598 14.7538 16.6298 14.7311 16.6298C14.7085 16.6298 14.6677 16.598 14.636 16.5618C14.5907 16.5029 14.5952 16.4938 14.6768 16.4938C14.7311 16.4938 14.7719 16.521 14.7719 16.5618ZM12.2797 16.6751C12.2797 16.6977 12.2616 16.7204 12.2344 16.7204C12.2118 16.7204 12.1891 16.6977 12.1891 16.6751C12.1891 16.6479 12.2118 16.6298 12.2344 16.6298C12.2616 16.6298 12.2797 16.6479 12.2797 16.6751ZM14.5454 16.8563C14.4366 16.9243 14.3777 16.9062 14.4729 16.8337C14.5227 16.7974 14.5725 16.7793 14.5861 16.7929C14.5997 16.8065 14.5816 16.8337 14.5454 16.8563ZM13.2358 16.888C13.2947 16.9605 13.2902 16.9651 13.2222 16.9062C13.1452 16.8473 13.1225 16.811 13.1588 16.811C13.1679 16.811 13.2041 16.8473 13.2358 16.888ZM10.5125 16.9243C10.585 16.9651 10.5986 16.9877 10.5533 16.9923C10.5171 16.9923 10.4446 16.9605 10.3947 16.9243C10.286 16.8427 10.363 16.8382 10.5125 16.9243ZM14.2735 16.9469C14.2735 16.9696 14.2508 16.9923 14.2236 16.9923C14.201 16.9923 14.1919 16.9696 14.2055 16.9469C14.2191 16.9198 14.2418 16.9016 14.2554 16.9016C14.2644 16.9016 14.2735 16.9198 14.2735 16.9469ZM11.9172 17.1463C11.9172 17.1554 11.8765 17.1735 11.8266 17.1871C11.7768 17.2007 11.745 17.1916 11.7632 17.169C11.7858 17.1282 11.9172 17.1101 11.9172 17.1463ZM12.1891 17.314C12.1891 17.3412 12.171 17.3457 12.1438 17.3321C12.1211 17.3185 12.0985 17.2823 12.0985 17.2596C12.0985 17.2324 12.1211 17.2279 12.1438 17.2415C12.171 17.2551 12.1891 17.2913 12.1891 17.314ZM13.9155 17.3865C13.9744 17.459 13.9699 17.4635 13.9019 17.4046C13.8249 17.3457 13.8022 17.3094 13.8385 17.3094C13.8475 17.3094 13.8838 17.3457 13.9155 17.3865ZM11.8266 17.6312C11.8266 17.6448 11.7768 17.6493 11.7179 17.6402C11.6454 17.6266 11.6136 17.5949 11.6318 17.5541C11.6499 17.5088 11.6725 17.5043 11.7405 17.5496C11.7858 17.5768 11.8266 17.6176 11.8266 17.6312ZM10.2724 17.7762C10.2905 17.8033 10.2543 17.8079 10.1682 17.7898C9.98239 17.7444 9.93708 17.681 10.1047 17.7082C10.1818 17.7173 10.2543 17.749 10.2724 17.7762ZM13.8702 17.749C13.9291 17.8215 13.9246 17.826 13.8566 17.7671C13.7796 17.7082 13.7569 17.6719 13.7932 17.6719C13.8022 17.6719 13.8385 17.7082 13.8702 17.749ZM10.943 17.7626C10.9294 17.7852 10.8932 17.8079 10.8705 17.8079C10.8433 17.8079 10.8388 17.7852 10.8524 17.7626C10.866 17.7354 10.9022 17.7173 10.9249 17.7173C10.9521 17.7173 10.9566 17.7354 10.943 17.7626ZM13.1905 17.7943C13.2494 17.8668 13.2449 17.8713 13.1769 17.8124C13.0999 17.7535 13.0772 17.7173 13.1135 17.7173C13.1225 17.7173 13.1588 17.7535 13.1905 17.7943ZM14.7266 17.7626C14.6904 17.7852 14.6179 17.8079 14.568 17.8079C14.491 17.8079 14.491 17.7988 14.5454 17.7626C14.5816 17.7399 14.6541 17.7173 14.704 17.7173C14.781 17.7173 14.781 17.7263 14.7266 17.7626ZM10.5896 17.8351C10.576 17.8487 10.5352 17.8532 10.5035 17.8396C10.4672 17.826 10.4808 17.8124 10.5307 17.8124C10.5805 17.8079 10.6077 17.8215 10.5896 17.8351ZM9.74677 17.9755C9.80567 18.048 9.80114 18.0526 9.73317 17.9937C9.68786 17.9619 9.65161 17.9257 9.65161 17.9166C9.65161 17.8804 9.68786 17.903 9.74677 17.9755ZM9.80567 18.3743C9.84192 18.5601 9.79208 18.6507 9.6788 18.6099C9.57911 18.5691 9.51567 18.3833 9.51567 18.1341L9.52021 17.9212L9.64708 18.0616C9.71958 18.1387 9.78755 18.2791 9.80567 18.3743ZM15.225 18.2066C15.225 18.3516 15.1979 18.5057 15.1661 18.551C15.0936 18.6507 14.9532 18.6008 14.9532 18.4785C14.9532 18.3607 15.1344 17.9438 15.1843 17.9438C15.2069 17.9438 15.225 18.0616 15.225 18.2066ZM13.263 18.0163C13.2494 18.0299 13.2086 18.0344 13.1769 18.0208C13.1407 18.0073 13.1543 17.9937 13.2041 17.9937C13.254 17.9891 13.2811 18.0027 13.263 18.0163ZM13.8521 18.0163C13.8385 18.0299 13.7977 18.0344 13.766 18.0208C13.7297 18.0073 13.7433 17.9937 13.7932 17.9937C13.843 17.9891 13.8702 18.0027 13.8521 18.0163ZM14.7357 18.2474C14.7266 18.3698 14.6994 18.483 14.6813 18.5057C14.6586 18.5238 14.414 18.4649 14.1285 18.3698C13.8475 18.2791 13.6391 18.193 13.6663 18.184C13.7116 18.1704 14.5408 18.0526 14.6813 18.039C14.7357 18.0344 14.7447 18.0798 14.7357 18.2474ZM10.943 18.1613L11.079 18.1976L10.943 18.2474C10.866 18.2746 10.6394 18.3607 10.44 18.4377L10.0685 18.5737L10.0413 18.474C10.0277 18.4196 10.0141 18.3063 10.0141 18.2202V18.0662L10.4129 18.0979C10.6304 18.1115 10.866 18.1432 10.943 18.1613ZM10.6983 18.5646C10.7572 18.6371 10.7527 18.6416 10.6847 18.5827C10.6394 18.551 10.6032 18.5148 10.6032 18.5057C10.6032 18.4694 10.6394 18.4921 10.6983 18.5646ZM10.875 18.986C10.6666 19.1854 10.4763 19.3485 10.4582 19.3485C10.4129 19.3485 10.1954 19.0268 10.1954 18.9588C10.1954 18.9135 11.0336 18.6371 11.1922 18.6326C11.2285 18.628 11.088 18.7912 10.875 18.986ZM12.9594 18.7141C12.9096 18.8093 12.7782 18.841 12.7782 18.7594C12.7782 18.7323 12.8099 18.7141 12.8461 18.7141C12.8824 18.7141 12.9141 18.6915 12.9141 18.6688C12.9141 18.6416 12.9368 18.6235 12.9594 18.6235C12.9911 18.6235 12.9911 18.6507 12.9594 18.7141ZM14.0741 18.7685C14.3324 18.8455 14.5454 18.9271 14.5454 18.9498C14.5454 19.0268 14.3596 19.3485 14.3143 19.3485C14.2599 19.3485 13.5122 18.628 13.5621 18.6235C13.5847 18.6235 13.8158 18.6869 14.0741 18.7685ZM13.4171 18.7458C13.476 18.8183 13.4715 18.8229 13.4035 18.764C13.3582 18.7323 13.3219 18.696 13.3219 18.6869C13.3219 18.6507 13.3582 18.6733 13.4171 18.7458ZM9.99599 18.8138C10.0186 18.8501 9.98692 18.8546 9.88724 18.8365C9.79208 18.8183 9.74224 18.8229 9.74224 18.8591C9.74224 18.8863 9.72864 18.8999 9.71505 18.8818C9.70146 18.8682 9.70146 18.8365 9.71958 18.8093C9.75583 18.7413 9.95521 18.7458 9.99599 18.8138ZM14.9079 18.9044C14.9079 18.9316 14.8761 18.9271 14.8399 18.8954C14.8036 18.8637 14.7719 18.8183 14.7719 18.7957C14.7719 18.7685 14.8036 18.773 14.8399 18.8048C14.8761 18.8365 14.9079 18.8818 14.9079 18.9044ZM13.4624 19.1083C13.5213 19.1808 13.5168 19.1854 13.4488 19.1265C13.3718 19.0676 13.3491 19.0313 13.3854 19.0313C13.3944 19.0313 13.4307 19.0676 13.4624 19.1083ZM13.254 19.1627C13.2404 19.1899 13.1905 19.2126 13.1497 19.2126C13.0908 19.2126 13.0908 19.2035 13.1679 19.1491C13.263 19.0812 13.3038 19.0857 13.254 19.1627ZM14.9985 19.1265C14.9985 19.1899 14.7357 19.6521 14.6813 19.6883C14.6088 19.7337 14.5907 19.4844 14.6541 19.3258C14.7311 19.1446 14.9985 18.9905 14.9985 19.1265ZM10.0775 19.276C10.1591 19.4482 10.1727 19.6657 10.1047 19.6657C10.0504 19.6657 9.78755 19.2669 9.78755 19.1808C9.78755 19.1491 9.83739 19.1219 9.8963 19.1219C9.97333 19.1219 10.0232 19.1627 10.0775 19.276ZM13.9155 19.199C13.9744 19.2715 13.9699 19.276 13.9019 19.2171C13.8249 19.1582 13.8022 19.1219 13.8385 19.1219C13.8475 19.1219 13.8838 19.1582 13.9155 19.199ZM13.8883 19.3394C13.8747 19.353 13.8385 19.3394 13.8068 19.3077C13.766 19.2624 13.7705 19.2579 13.834 19.2851C13.8793 19.2987 13.9019 19.3258 13.8883 19.3394ZM10.9657 19.3168C10.9657 19.3258 10.8796 19.4119 10.7754 19.5071L10.5805 19.6883L10.7618 19.4935C10.9249 19.3168 10.9657 19.2805 10.9657 19.3168ZM13.05 20.2593C13.05 20.3091 12.9957 20.3408 12.8824 20.3635C12.5561 20.4133 12.5743 20.4496 12.5924 19.8379L12.606 19.2805L12.828 19.7337C12.9504 19.9829 13.05 20.2185 13.05 20.2593ZM13.5032 19.3168C13.5032 19.3258 13.4579 19.3712 13.408 19.421C13.3083 19.5071 13.3083 19.5071 13.3718 19.4029C13.4261 19.3168 13.5032 19.2669 13.5032 19.3168ZM12.1846 20.0916L12.1891 20.4043L11.9988 20.3726C11.8991 20.3544 11.7949 20.3318 11.7722 20.3182C11.6997 20.2729 11.7405 20.1143 11.9308 19.7291L12.1211 19.3394L12.1529 19.5615C12.1665 19.6793 12.1846 19.9194 12.1846 20.0916ZM11.1016 19.4391C11.1016 19.4618 11.0699 19.4844 11.0336 19.4844C10.9974 19.4844 10.9657 19.4618 10.9657 19.4391C10.9657 19.4119 10.9974 19.3938 11.0336 19.3938C11.0699 19.3938 11.1016 19.4119 11.1016 19.4391ZM12.3115 19.5615C12.2979 19.6068 12.2888 19.5796 12.2888 19.5071C12.2888 19.4301 12.2979 19.3983 12.3115 19.4255C12.3205 19.4573 12.3205 19.5207 12.3115 19.5615ZM14.2418 19.7654L14.3233 19.9149L14.1874 19.7563C14.1104 19.6702 14.0469 19.5841 14.0469 19.5615C14.0469 19.489 14.1557 19.6023 14.2418 19.7654ZM10.3268 19.8152C10.3313 19.8379 10.3132 19.8379 10.286 19.8243C10.2633 19.8107 10.2407 19.7518 10.2452 19.6974C10.2452 19.6023 10.2497 19.6023 10.286 19.6883C10.3086 19.7382 10.3268 19.7971 10.3268 19.8152ZM11.1469 19.779C11.1786 19.8198 11.1832 19.8469 11.156 19.8469C11.1333 19.8469 11.1016 19.8152 11.0835 19.779C11.0699 19.7427 11.0654 19.711 11.0744 19.711C11.0835 19.711 11.1152 19.7427 11.1469 19.779ZM12.3885 19.9648C12.4293 20.0735 12.4202 20.4723 12.3749 20.4994C12.3522 20.5176 12.325 20.3862 12.316 20.2094C12.3024 19.9058 12.3296 19.8107 12.3885 19.9648ZM13.2947 19.9648C13.3355 20.0735 13.3038 20.0826 13.2404 19.9829C13.2086 19.933 13.2041 19.8923 13.2268 19.8923C13.2494 19.8923 13.2811 19.924 13.2947 19.9648ZM11.3735 20.2049C11.3508 20.2548 11.3055 20.3091 11.2738 20.3273C11.2421 20.3499 11.2375 20.3363 11.2602 20.2955C11.3554 20.1279 11.4596 20.0463 11.3735 20.2049ZM13.6391 20.4858C13.6391 20.513 13.621 20.5176 13.5938 20.504C13.5711 20.4904 13.5485 20.4541 13.5485 20.4315C13.5485 20.4043 13.5711 20.3998 13.5938 20.4133C13.621 20.4269 13.6391 20.4632 13.6391 20.4858ZM12.0396 20.5085C12.026 20.5221 11.9852 20.5266 11.9535 20.513C11.9172 20.4994 11.9308 20.4858 11.9807 20.4858C12.0305 20.4813 12.0577 20.4949 12.0396 20.5085ZM12.1257 20.7169C12.1075 20.8801 12.1121 20.8801 11.7224 20.794C11.378 20.7124 11.5185 20.5901 11.9716 20.5765C12.1393 20.5719 12.1438 20.5765 12.1257 20.7169ZM13.2721 20.658C13.3536 20.7079 13.3038 20.7305 12.9957 20.7985C12.7102 20.8529 12.6422 20.8393 12.6422 20.7033C12.6422 20.6263 12.674 20.6173 12.9277 20.6173C13.0818 20.6173 13.2358 20.6354 13.2721 20.658Z" fill="black"/>
<path d="M44.9273 14.9984C43.6404 15.1479 42.6345 16.0451 42.2901 17.3546C42.1904 17.7398 42.1904 18.4149 42.2901 18.8046C42.4578 19.4345 42.8656 20.0734 43.3549 20.4585C43.7401 20.7667 44.3337 21.0521 44.7279 21.1156C45.6251 21.2651 46.6356 20.9977 47.3017 20.4313C48.0312 19.806 48.4435 18.8318 48.3756 17.8757C48.3438 17.3637 48.2623 17.0601 48.0448 16.6296C47.8182 16.1765 47.2382 15.5874 46.7851 15.3518C46.2278 15.0618 45.5254 14.9259 44.9273 14.9984ZM44.4198 15.4877C44.3473 15.5784 44.2204 15.6917 44.1388 15.7415C43.9984 15.8231 43.9938 15.8231 43.9304 15.7415C43.8942 15.6917 43.867 15.6327 43.8624 15.6101C43.8624 15.5648 44.5013 15.2702 44.5376 15.302C44.5512 15.311 44.4968 15.3926 44.4198 15.4877ZM46.7579 15.5738C46.7896 15.5965 46.622 15.814 46.5721 15.814C46.5087 15.814 46.0828 15.3835 46.0828 15.3201C46.0828 15.2884 46.6401 15.4968 46.7579 15.5738ZM44.6781 15.4062C44.6781 15.4288 44.6599 15.4515 44.6328 15.4515C44.6101 15.4515 44.5874 15.4288 44.5874 15.4062C44.5874 15.379 44.6101 15.3609 44.6328 15.3609C44.6599 15.3609 44.6781 15.379 44.6781 15.4062ZM46.0374 15.4288C46.0374 15.4651 46.0193 15.4968 45.9921 15.4968C45.9695 15.4968 45.9468 15.4651 45.9468 15.4288C45.9468 15.3926 45.9695 15.3609 45.9921 15.3609C46.0193 15.3609 46.0374 15.3926 46.0374 15.4288ZM45.7973 15.7324C45.7837 15.7687 45.7701 15.7551 45.7701 15.7052C45.7656 15.6554 45.7792 15.6282 45.7928 15.6463C45.8063 15.6599 45.8109 15.7007 45.7973 15.7324ZM44.8956 15.9726C44.8956 16.104 44.8956 16.104 44.8593 15.9952C44.8412 15.9318 44.8231 15.8321 44.8231 15.7687C44.8185 15.6645 44.8231 15.6645 44.8593 15.746C44.882 15.7959 44.8956 15.8956 44.8956 15.9726ZM46.9754 15.7959C46.9618 15.8095 46.921 15.814 46.8893 15.8004C46.8531 15.7868 46.8667 15.7732 46.9165 15.7732C46.9663 15.7687 46.9935 15.7823 46.9754 15.7959ZM44.6599 16.3577C44.7823 16.9151 44.7823 16.9151 44.7188 16.8743C44.6509 16.8335 44.1343 16.1312 44.1343 16.0813C44.1343 16.0224 44.4153 15.8548 44.4923 15.8684C44.5376 15.8774 44.592 16.0406 44.6599 16.3577ZM46.3456 15.9499C46.477 16.0315 46.486 16.0496 46.4407 16.1448C46.3682 16.2852 45.8924 16.906 45.8743 16.8879C45.8607 16.8788 45.897 16.6432 45.9513 16.3668C46.0556 15.8049 46.0782 15.7868 46.3456 15.9499ZM43.5543 16.0904C43.6404 16.1448 43.2009 16.4484 43.0332 16.4484C42.929 16.4484 42.9788 16.3577 43.2281 16.0859C43.4048 15.8956 43.4184 15.891 43.4682 15.9726C43.4909 16.0224 43.5317 16.0768 43.5543 16.0904ZM47.6234 16.4121C47.6234 16.5209 47.3017 16.3895 47.134 16.2082C47.0298 16.0995 47.0298 16.0949 47.1113 15.9952L47.1929 15.9001L47.4104 16.1357C47.5282 16.2671 47.6234 16.3895 47.6234 16.4121ZM45.752 16.0496C45.7384 16.0859 45.7248 16.0723 45.7248 16.0224C45.7203 15.9726 45.7338 15.9454 45.7474 15.9635C45.761 15.9771 45.7656 16.0179 45.752 16.0496ZM43.9757 16.1312C43.9893 16.1538 43.9712 16.1765 43.9349 16.1765C43.8987 16.1765 43.8534 16.1538 43.8398 16.1312C43.8262 16.104 43.8443 16.0859 43.8806 16.0859C43.9168 16.0859 43.9621 16.104 43.9757 16.1312ZM46.7851 16.1312C46.7715 16.1538 46.7262 16.1765 46.6899 16.1765C46.6537 16.1765 46.6356 16.1538 46.6492 16.1312C46.6628 16.104 46.7081 16.0859 46.7443 16.0859C46.7806 16.0859 46.7987 16.104 46.7851 16.1312ZM44.1026 16.761C44.2703 17.0102 44.4062 17.2232 44.4062 17.2368C44.4062 17.2504 44.1842 17.1235 43.9078 16.9604C43.6359 16.7973 43.4093 16.6477 43.4093 16.6251C43.4093 16.5888 43.731 16.3124 43.7718 16.3124C43.7854 16.3124 43.9304 16.5163 44.1026 16.761ZM47.0298 16.4665C47.1113 16.5526 47.1657 16.6432 47.1521 16.6659C47.1385 16.6931 46.9981 16.7837 46.8395 16.8698C46.6854 16.9604 46.4815 17.0827 46.3909 17.1462C46.2957 17.2096 46.2187 17.2504 46.2187 17.2368C46.2187 17.1598 46.7987 16.3124 46.8485 16.3124C46.8667 16.3124 46.9482 16.3804 47.0298 16.4665ZM47.646 16.5888C47.6959 16.6659 47.6415 16.684 47.5781 16.607C47.5418 16.5662 47.5418 16.539 47.569 16.539C47.5962 16.539 47.6324 16.5617 47.646 16.5888ZM43.364 16.9468C43.4229 16.9831 43.4229 16.9921 43.3549 16.9921C43.3142 16.9921 43.2643 16.9695 43.2507 16.9468C43.2145 16.8879 43.2734 16.8879 43.364 16.9468ZM47.3515 16.9242C47.3515 16.9332 47.2926 16.974 47.2156 17.0148C47.1431 17.0556 47.0796 17.0692 47.0796 17.0465C47.0796 17.0238 47.1249 16.9831 47.1838 16.9559C47.2971 16.9015 47.3515 16.8924 47.3515 16.9242ZM43.0468 17.0374C43.0468 17.0601 43.0151 17.0827 42.9743 17.0827C42.9381 17.0827 42.9199 17.0601 42.9335 17.0374C42.9471 17.0102 42.9788 16.9921 43.006 16.9921C43.0287 16.9921 43.0468 17.0102 43.0468 17.0374ZM45.6342 17.1417C45.5888 17.1824 45.5843 17.1779 45.6115 17.1145C45.6251 17.0692 45.6523 17.0465 45.6659 17.0601C45.6795 17.0737 45.6659 17.1099 45.6342 17.1417ZM45.2988 17.2277C45.2853 17.2595 45.2762 17.2368 45.2762 17.1734C45.2762 17.1099 45.2853 17.0873 45.2988 17.1145C45.3079 17.1462 45.3079 17.2006 45.2988 17.2277ZM46.0148 17.1779C46.0646 17.2549 46.0103 17.2731 45.9468 17.196C45.9106 17.1552 45.9106 17.1281 45.9378 17.1281C45.9649 17.1281 46.0012 17.1507 46.0148 17.1779ZM44.0437 17.4906C44.0437 17.5132 44.0256 17.5359 43.9984 17.5359C43.9757 17.5359 43.9531 17.5132 43.9531 17.4906C43.9531 17.4634 43.9757 17.4452 43.9984 17.4452C44.0256 17.4452 44.0437 17.4634 44.0437 17.4906ZM43.1601 17.8077L43.2507 17.8485H43.1601C43.1103 17.8485 43.0287 17.8304 42.9788 17.8077L42.8882 17.767H42.9788C43.0287 17.767 43.1103 17.7851 43.1601 17.8077ZM47.646 17.8077C47.5962 17.8304 47.5146 17.8485 47.4648 17.8485H47.3742L47.4648 17.8077C47.5146 17.7851 47.5962 17.767 47.646 17.767H47.7367L47.646 17.8077ZM42.9788 17.989C42.9653 18.0117 42.929 18.0343 42.9063 18.0343C42.8792 18.0343 42.8746 18.0117 42.8882 17.989C42.9018 17.9618 42.9381 17.9437 42.9607 17.9437C42.9879 17.9437 42.9924 17.9618 42.9788 17.989ZM42.7296 18.4376C42.7795 18.6143 42.7568 18.6687 42.6435 18.6687C42.5031 18.6687 42.4578 18.569 42.4578 18.2654V17.9709L42.571 18.1249C42.6345 18.211 42.7024 18.3515 42.7296 18.4376ZM43.9395 18.0615C43.9259 18.0751 43.8851 18.0796 43.8534 18.066C43.8171 18.0524 43.8307 18.0388 43.8806 18.0388C43.9304 18.0343 43.9576 18.0479 43.9395 18.0615ZM48.1671 18.2337C48.1671 18.5282 48.1037 18.6687 47.9632 18.6687C47.8998 18.6687 47.8499 18.6415 47.8499 18.6098C47.8499 18.424 48.0312 18.0343 48.1218 18.0343C48.149 18.0343 48.1671 18.1249 48.1671 18.2337ZM47.6687 18.3107C47.6506 18.4104 47.6143 18.5146 47.5917 18.5373C47.569 18.5599 47.424 18.5373 47.2382 18.4829C47.0615 18.4331 46.844 18.3696 46.7534 18.3424C46.6582 18.3152 46.5812 18.279 46.5812 18.2654C46.5812 18.2337 47.6188 18.0887 47.6732 18.1113C47.6913 18.1159 47.6868 18.2065 47.6687 18.3107ZM43.577 18.1748C43.7718 18.202 43.9485 18.2427 43.9667 18.2609C44.012 18.3017 43.0604 18.5917 43.0015 18.5554C42.9471 18.5237 42.8928 18.2337 42.9335 18.1748C42.9698 18.1113 43.1374 18.1113 43.577 18.1748ZM42.852 18.4512C42.8384 18.4874 42.8248 18.4738 42.8248 18.424C42.8203 18.3742 42.8338 18.347 42.8474 18.3651C42.861 18.3787 42.8656 18.4195 42.852 18.4512ZM47.791 18.4512C47.7774 18.4874 47.7638 18.4738 47.7638 18.424C47.7593 18.3742 47.7729 18.347 47.7865 18.3651C47.8001 18.3787 47.8046 18.4195 47.791 18.4512ZM43.8217 18.5645C43.8806 18.637 43.876 18.6415 43.8081 18.5826C43.7628 18.5509 43.7265 18.5146 43.7265 18.5056C43.7265 18.4693 43.7628 18.492 43.8217 18.5645ZM44.6192 18.7231C44.6056 18.7593 44.592 18.7457 44.592 18.6959C44.5874 18.646 44.601 18.6188 44.6146 18.637C44.6282 18.6506 44.6328 18.6913 44.6192 18.7231ZM46.0374 18.6959C46.0374 18.7321 46.0148 18.7502 45.9921 18.7367C45.9649 18.7185 45.9559 18.6868 45.9695 18.6642C46.0103 18.6007 46.0374 18.6143 46.0374 18.6959ZM43.8217 19.0357C43.6042 19.2442 43.4138 19.3937 43.3685 19.3846C43.3323 19.3756 43.2507 19.2849 43.1918 19.1807L43.0876 18.9904L43.5543 18.8499C43.8126 18.7684 44.0437 18.7004 44.0663 18.6913C44.2113 18.6415 44.166 18.7095 43.8217 19.0357ZM44.8865 18.791C44.8548 18.8227 44.7687 18.7593 44.7687 18.7049C44.7687 18.6777 44.7959 18.6777 44.8367 18.714C44.8774 18.7457 44.8956 18.782 44.8865 18.791ZM46.921 18.8046C47.3107 18.9224 47.4874 18.9904 47.4874 19.0221C47.4874 19.0674 47.2563 19.439 47.2292 19.439C47.1929 19.439 46.7851 19.0538 46.5812 18.8318C46.4588 18.6959 46.4453 18.6642 46.5132 18.6823C46.5631 18.7004 46.7488 18.7548 46.921 18.8046ZM47.3968 18.7367C47.3968 18.7729 47.3787 18.8046 47.3515 18.8046C47.3288 18.8046 47.3198 18.7729 47.3334 18.7367C47.3515 18.7004 47.3696 18.6687 47.3787 18.6687C47.3878 18.6687 47.3968 18.7004 47.3968 18.7367ZM42.9245 18.8817C42.8928 18.8907 42.8293 18.8907 42.7885 18.8817C42.7432 18.8681 42.7704 18.859 42.8429 18.859C42.9199 18.859 42.9517 18.8681 42.9245 18.8817ZM43.0423 19.4254C43.0831 19.5749 43.0649 19.7562 43.0015 19.7562C42.9698 19.7562 42.6843 19.2532 42.6843 19.1988C42.6843 19.1852 42.7296 19.1671 42.7885 19.1581C42.9063 19.1354 42.9879 19.2215 43.0423 19.4254ZM44.4062 19.1626C44.4062 19.217 44.3156 19.2759 44.2838 19.2442C44.2521 19.2124 44.311 19.1218 44.3654 19.1218C44.3881 19.1218 44.4062 19.1399 44.4062 19.1626ZM47.9406 19.1988C47.9406 19.2804 47.6098 19.7517 47.569 19.729C47.5056 19.6882 47.5509 19.371 47.637 19.2396C47.6913 19.1581 47.7367 19.1399 47.8228 19.1535C47.8862 19.1671 47.9406 19.1898 47.9406 19.1988ZM45.2988 19.3574C45.2853 19.3937 45.2717 19.3801 45.2717 19.3302C45.2671 19.2804 45.2807 19.2532 45.2943 19.2713C45.3079 19.2849 45.3124 19.3257 45.2988 19.3574ZM46.3546 19.3438C46.3048 19.439 46.2187 19.5115 46.2187 19.4571C46.2187 19.4209 46.3546 19.2577 46.3863 19.2577C46.3954 19.2577 46.3818 19.2985 46.3546 19.3438ZM47.0343 19.4163C47.0932 19.4798 47.1295 19.5296 47.1159 19.5296C47.1068 19.5296 47.0479 19.4798 46.989 19.4163C46.9301 19.3529 46.8938 19.3031 46.9074 19.3031C46.9165 19.3031 46.9754 19.3529 47.0343 19.4163ZM43.6812 19.362C43.6812 19.371 43.6359 19.4163 43.586 19.4662C43.4863 19.5523 43.4863 19.5523 43.5407 19.4481C43.586 19.3665 43.6812 19.3076 43.6812 19.362ZM45.104 19.9012L45.1312 20.4359H44.9545C44.737 20.4359 44.6328 20.3996 44.6328 20.3226C44.6328 20.2637 45.0451 19.3393 45.0632 19.3574C45.0678 19.3665 45.0859 19.6112 45.104 19.9012ZM45.7792 19.8468C45.974 20.2863 45.9831 20.3271 45.9106 20.3815C45.8698 20.4132 45.761 20.4359 45.6749 20.4268L45.5163 20.4132L45.5028 20.0734C45.4892 19.7652 45.5254 19.3167 45.5617 19.3574C45.5662 19.362 45.6659 19.584 45.7792 19.8468ZM44.4515 19.507C44.5104 19.5704 44.5467 19.6202 44.5331 19.6202C44.524 19.6202 44.4651 19.5704 44.4062 19.507C44.3473 19.4435 44.311 19.3937 44.3246 19.3937C44.3337 19.3937 44.3926 19.4435 44.4515 19.507ZM43.6132 19.6656C43.5679 19.7154 43.5226 19.7471 43.509 19.7335C43.4954 19.7199 43.5226 19.6701 43.5679 19.6202C43.6132 19.5704 43.6585 19.5387 43.6721 19.5523C43.6857 19.5659 43.6585 19.6157 43.6132 19.6656ZM44.0029 19.6067C44.0618 19.6792 44.0573 19.6837 43.9893 19.6248C43.944 19.5931 43.9078 19.5568 43.9078 19.5477C43.9078 19.5115 43.944 19.5342 44.0029 19.6067ZM46.4906 19.6429C46.4588 19.6837 46.4226 19.7018 46.4135 19.6927C46.3818 19.661 46.4453 19.5749 46.4996 19.5749C46.5268 19.5749 46.5268 19.6021 46.4906 19.6429ZM47.0796 19.6882C47.1703 19.797 47.1068 19.8151 47.0117 19.7109C46.9663 19.661 46.9528 19.6202 46.9754 19.6202C47.0026 19.6202 47.0479 19.652 47.0796 19.6882ZM44.021 19.8967C44.0709 19.9737 44.0165 19.9918 43.9531 19.9148C43.9168 19.874 43.9168 19.8468 43.944 19.8468C43.9712 19.8468 44.0074 19.8695 44.021 19.8967ZM45.3578 20.2501C45.3578 20.3452 45.3442 20.4948 45.326 20.5763C45.2943 20.7123 45.2853 20.6896 45.2626 20.4132C45.249 20.2365 45.2445 20.0824 45.2581 20.0598C45.2988 19.9782 45.3578 20.0915 45.3578 20.2501ZM44.3292 20.2138C44.2838 20.2909 44.2204 20.377 44.1842 20.4042C44.1071 20.4676 44.1343 20.4087 44.2793 20.1957C44.3971 20.0281 44.4288 20.0417 44.3292 20.2138ZM46.3274 20.2501C46.3003 20.2773 46.2187 20.164 46.2187 20.096C46.2232 20.0688 46.2504 20.0915 46.2867 20.1368C46.3229 20.1867 46.341 20.2365 46.3274 20.2501ZM43.7718 20.3452C43.7718 20.3679 43.7537 20.3906 43.7265 20.3906C43.7038 20.3906 43.6812 20.3679 43.6812 20.3452C43.6812 20.3181 43.7038 20.2999 43.7265 20.2999C43.7537 20.2999 43.7718 20.3181 43.7718 20.3452ZM46.8984 20.3452C46.8984 20.3679 46.8893 20.3906 46.8803 20.3906C46.8667 20.3906 46.844 20.3679 46.8304 20.3452C46.8168 20.3181 46.8259 20.2999 46.8485 20.2999C46.8757 20.2999 46.8984 20.3181 46.8984 20.3452ZM46.4951 20.4676C46.554 20.5401 46.5495 20.5446 46.4815 20.4857C46.4362 20.454 46.3999 20.4177 46.3999 20.4087C46.3999 20.3724 46.4362 20.3951 46.4951 20.4676ZM44.9817 20.5537C44.9681 20.5673 44.9273 20.5718 44.8956 20.5582C44.8593 20.5446 44.8729 20.531 44.9228 20.531C44.9726 20.5265 44.9998 20.5401 44.9817 20.5537ZM45.7067 20.5537C45.6931 20.5673 45.6523 20.5718 45.6206 20.5582C45.5843 20.5446 45.5979 20.531 45.6478 20.531C45.6976 20.5265 45.7248 20.5401 45.7067 20.5537ZM45.0315 20.8165C45.0451 20.9117 45.0315 20.9388 44.9862 20.9252C44.9545 20.9117 44.8095 20.8754 44.669 20.8437C44.2748 20.7531 44.3292 20.6624 44.7687 20.676C45.0088 20.6851 45.0179 20.6896 45.0315 20.8165ZM46.1734 20.7077C46.2278 20.7395 46.2187 20.7576 46.1281 20.7893C46.0646 20.812 45.9423 20.8482 45.8562 20.8618C45.7701 20.8799 45.6613 20.9071 45.6206 20.9162C45.5118 20.9479 45.5163 20.8663 45.6296 20.7531C45.7248 20.6579 46.0465 20.6262 46.1734 20.7077ZM45.3578 20.8437C45.3578 20.8663 45.317 20.889 45.2671 20.889C45.2173 20.889 45.1765 20.8663 45.1765 20.8437C45.1765 20.8165 45.2173 20.7984 45.2671 20.7984C45.317 20.7984 45.3578 20.8165 45.3578 20.8437Z" fill="black"/>
<path d="M6.73352 17.2958C6.71993 17.3094 6.70634 17.3909 6.70634 17.477C6.70634 17.5767 6.68368 17.6265 6.6429 17.6265C6.60212 17.6265 6.58852 17.5948 6.60212 17.545C6.62477 17.4498 6.38462 17.3048 6.3529 17.3954C6.34384 17.4226 6.31212 17.4453 6.27587 17.4453C6.18071 17.4453 6.09915 17.69 6.16259 17.8033C6.22149 17.9211 6.2668 17.9256 6.23055 17.8123C6.21696 17.7579 6.23055 17.7172 6.27587 17.699C6.33024 17.6809 6.3393 17.699 6.31665 17.7806C6.28946 17.9029 6.38009 17.9573 6.54774 17.9165C6.65196 17.8894 6.72899 17.7489 6.81962 17.4136C6.8468 17.3184 6.79243 17.2414 6.73352 17.2958ZM6.47524 17.5404C6.40274 17.5858 6.37102 17.5586 6.4118 17.4951C6.4254 17.4679 6.46165 17.4589 6.48884 17.4725C6.51602 17.4906 6.51149 17.5133 6.47524 17.5404Z" fill="black"/>
</g>
<defs>
<clipPath id="clip0_202_2166">
<rect width="58" height="29" fill="white"/>
</clipPath>
</defs>
</svg>
