<svg width="122" height="29" viewBox="0 0 122 29" fill="none" xmlns="http://www.w3.org/2000/svg">
<path d="M11.8135 8.26611L6.97948 23H3.08539L9.68948 5.22656H12.1675L11.8135 8.26611ZM15.8296 23L10.9834 8.26611L10.5928 5.22656H13.0952L19.7358 23H15.8296ZM15.6099 16.3838V19.2524H6.22269V16.3838H15.6099ZM28.3418 15.1997H23.7764L23.752 12.6851H27.585C28.2604 12.6851 28.8138 12.5996 29.2451 12.4287C29.6764 12.2497 29.9979 11.9933 30.2095 11.6597C30.4292 11.3179 30.5391 10.9028 30.5391 10.4146C30.5391 9.86117 30.4333 9.41357 30.2217 9.07178C30.0182 8.72998 29.6968 8.48177 29.2573 8.32715C28.826 8.17253 28.2686 8.09521 27.585 8.09521H25.0459V23H21.3838V5.22656H27.585C28.6185 5.22656 29.5422 5.32422 30.356 5.51953C31.1779 5.71484 31.8737 6.01188 32.4434 6.41064C33.013 6.80941 33.4484 7.31396 33.7495 7.92432C34.0506 8.52653 34.2012 9.24268 34.2012 10.0728C34.2012 10.8052 34.0343 11.4806 33.7007 12.0991C33.3752 12.7176 32.8584 13.2222 32.1504 13.6128C31.4505 14.0034 30.535 14.2191 29.4038 14.2598L28.3418 15.1997ZM28.1831 23H22.7754L24.2036 20.1436H28.1831C28.826 20.1436 29.3509 20.0418 29.7578 19.8384C30.1647 19.6268 30.4658 19.342 30.6611 18.9839C30.8564 18.6258 30.9541 18.2148 30.9541 17.751C30.9541 17.2301 30.8646 16.7785 30.6855 16.396C30.5146 16.0135 30.238 15.7205 29.8555 15.5171C29.473 15.3055 28.9684 15.1997 28.3418 15.1997H24.814L24.8384 12.6851H29.2329L30.0752 13.6738C31.1576 13.6576 32.0283 13.8488 32.6875 14.2476C33.3548 14.6382 33.839 15.1468 34.1401 15.7734C34.4494 16.4001 34.604 17.0715 34.604 17.7876C34.604 18.9269 34.3558 19.8872 33.8594 20.6685C33.363 21.4416 32.6346 22.0234 31.6743 22.4141C30.7222 22.8047 29.5584 23 28.1831 23ZM44.956 5.22656V23H41.306V5.22656H44.956ZM50.424 5.22656V8.09521H35.9224V5.22656H50.424ZM66.77 13.6982V14.5405C66.77 15.8914 66.586 17.104 66.22 18.1782C65.854 19.2524 65.337 20.168 64.67 20.9248C64.003 21.6735 63.205 22.2472 62.277 22.646C61.358 23.0448 60.336 23.2441 59.213 23.2441C58.098 23.2441 57.077 23.0448 56.149 22.646C55.23 22.2472 54.432 21.6735 53.757 20.9248C53.081 20.168 52.556 19.2524 52.182 18.1782C51.816 17.104 51.633 15.8914 51.633 14.5405V13.6982C51.633 12.3392 51.816 11.1266 52.182 10.0605C52.548 8.98633 53.065 8.0708 53.732 7.31396C54.408 6.55713 55.205 5.97933 56.125 5.58057C57.053 5.1818 58.074 4.98242 59.189 4.98242C60.312 4.98242 61.333 5.1818 62.253 5.58057C63.181 5.97933 63.978 6.55713 64.646 7.31396C65.321 8.0708 65.842 8.98633 66.208 10.0605C66.582 11.1266 66.77 12.3392 66.77 13.6982ZM63.071 14.5405V13.6738C63.071 12.7298 62.985 11.8997 62.814 11.1836C62.644 10.4674 62.391 9.86523 62.058 9.37695C61.724 8.88867 61.317 8.52246 60.837 8.27832C60.357 8.02604 59.807 7.8999 59.189 7.8999C58.57 7.8999 58.021 8.02604 57.541 8.27832C57.069 8.52246 56.666 8.88867 56.333 9.37695C56.007 9.86523 55.759 10.4674 55.588 11.1836C55.417 11.8997 55.332 12.7298 55.332 13.6738V14.5405C55.332 15.4764 55.417 16.3065 55.588 17.0308C55.759 17.7469 56.011 18.3532 56.345 18.8496C56.678 19.3379 57.085 19.7082 57.565 19.9604C58.046 20.2127 58.595 20.3389 59.213 20.3389C59.832 20.3389 60.381 20.2127 60.861 19.9604C61.341 19.7082 61.744 19.3379 62.07 18.8496C62.395 18.3532 62.644 17.7469 62.814 17.0308C62.985 16.3065 63.071 15.4764 63.071 14.5405Z" fill="white"/>
<path d="M69.37 5.22656H73.044V20.1436H78V5.22656H81.662V20.1436H86.569V5.22656H90.219V23H69.37V5.22656ZM105.283 20.1436V23H95.822V20.1436H105.283ZM97.019 5.22656V23H93.356V5.22656H97.019ZM104.05 12.4653V15.2485H95.822V12.4653H104.05ZM105.271 5.22656V8.09521H95.822V5.22656H105.271ZM114.34 16.6646H109.812V13.8081H114.34C115.04 13.8081 115.61 13.6942 116.049 13.4663C116.489 13.2303 116.81 12.9048 117.014 12.4897C117.217 12.0747 117.319 11.6068 117.319 11.0859C117.319 10.557 117.217 10.0646 117.014 9.60889C116.81 9.15316 116.489 8.78695 116.049 8.51025C115.61 8.23356 115.04 8.09521 114.34 8.09521H111.081V23H107.419V5.22656H114.34C115.732 5.22656 116.924 5.47884 117.917 5.9834C118.918 6.47982 119.683 7.16748 120.212 8.04639C120.741 8.92529 121.005 9.93034 121.005 11.0615C121.005 12.209 120.741 13.2018 120.212 14.04C119.683 14.8783 118.918 15.5252 117.917 15.981C116.924 16.4367 115.732 16.6646 114.34 16.6646Z" fill="#FFE600"/>
</svg>
