<svg width="20" height="24" viewBox="0 0 20 24" fill="none" xmlns="http://www.w3.org/2000/svg">
<path d="M9.81202 3C12.3613 3 14.4351 5.08388 14.4351 7.64569C14.4351 10.2073 12.3613 12.2902 9.81202 12.2902C7.26282 12.2902 5.19002 10.2073 5.19002 7.64569C5.19002 5.08388 7.26281 3 9.81202 3ZM9.81202 5.72194C8.75694 5.72194 7.89896 6.58535 7.89896 7.64569C7.89896 8.70559 8.75692 9.56833 9.81202 9.56833C10.8673 9.56833 11.7262 8.7056 11.7262 7.64569C11.7262 6.58535 10.8673 5.72194 9.81202 5.72194ZM13.6236 12.4483C14.081 12.4412 14.5307 12.6677 14.7917 13.0856C15.1904 13.7222 14.9994 14.5623 14.3674 14.9627C13.5314 15.4897 12.6243 15.8637 11.6836 16.0792L14.2672 18.6769C14.7961 19.2087 14.7956 20.0699 14.2666 20.6017C14.0015 20.8672 13.6557 21 13.309 21C12.9627 21 12.6157 20.867 12.3514 20.6012L9.81312 18.0491L7.27264 20.6012C6.74419 21.1328 5.88729 21.1328 5.35792 20.6012C4.82879 20.0697 4.82879 19.2075 5.35792 18.6769L7.94261 16.0798C7.00164 15.8643 6.09423 15.4901 5.25885 14.9627C4.62562 14.5623 4.43431 13.7213 4.83293 13.0856C5.23199 12.4489 6.06751 12.2571 6.70121 12.6581C8.59383 13.8546 11.0325 13.8538 12.9245 12.6581C13.1423 12.5203 13.384 12.4521 13.6236 12.4483Z" fill="#CED4DA"/>
</svg>
