<svg width="26" height="24" viewBox="0 0 26 24" fill="none" xmlns="http://www.w3.org/2000/svg">
<g id="RuTube">
<g id="Vector">
<path d="M3 21V6.42726L14.9954 6.42727C16.5775 6.42727 18.0963 6.49719 19.1571 7.40648C19.8195 7.97426 20.5922 8.95691 20.5922 11.1166C20.5922 12.4991 20.5443 13.853 19.8915 14.7506C19.4419 15.3689 18.7081 15.986 17.5251 16.1855L21 21H16.875L13.6898 16.3487H6.67207V21H3ZM14.9954 9.65739H6.67207V13.0031H14.9954C15.6226 13.0031 16.2877 12.9902 16.6155 12.6766C16.9576 12.3631 17.0355 12.1461 17.0355 11.405C17.0355 10.6495 16.9576 10.3647 16.6155 10.0654C16.2877 9.75183 15.6226 9.65739 14.9954 9.65739Z" fill="#CED4DA"/>
<path d="M23.2372 4.87683C23.2372 5.91338 22.3969 6.75367 21.3603 6.75367C20.3238 6.75367 19.4835 5.91338 19.4835 4.87683C19.4835 3.84029 20.3238 3 21.3603 3C22.3969 3 23.2372 3.84029 23.2372 4.87683Z" fill="#CED4DA"/>
</g>
</g>
</svg>
