<svg width="24" height="24" viewBox="0 0 24 24" fill="none" xmlns="http://www.w3.org/2000/svg">
<g id="TG">
<path id="Vector" fill-rule="evenodd" clip-rule="evenodd" d="M19.8385 4.1163C20.0832 4.01332 20.351 3.97781 20.6141 4.01345C20.8771 4.04909 21.1258 4.15459 21.3343 4.31896C21.5427 4.48333 21.7033 4.70057 21.7993 4.94807C21.8953 5.19556 21.9232 5.46427 21.8801 5.72621L19.6346 19.347C19.4167 20.6609 17.9752 21.4144 16.7702 20.7599C15.7623 20.2124 14.2653 19.3688 12.9187 18.4886C12.2454 18.048 10.1831 16.6371 10.4365 15.6332C10.6544 14.7747 14.1197 11.549 16.0999 9.63116C16.8771 8.8777 16.5227 8.44304 15.6049 9.13611C13.3247 10.8569 9.66624 13.4737 8.45633 14.2104C7.38901 14.8599 6.83257 14.9708 6.16722 14.8599C4.95336 14.6579 3.82761 14.345 2.9088 13.9638C1.66722 13.449 1.72761 11.7421 2.90781 11.245L19.8385 4.1163Z" fill="#27A7E8"/>
</g>
</svg>
