<svg width="27" height="24" viewBox="0 0 27 24" fill="none" xmlns="http://www.w3.org/2000/svg">
<g id="VK">
<path id="Vector" d="M25.6263 6.03149C25.3627 6.87382 24.9771 7.67298 24.4818 8.40351L24.5018 8.37201C24.0313 9.15603 23.4696 10.0619 22.8165 11.0895C22.2564 11.9008 21.96 12.3208 21.9271 12.3495C21.7774 12.5369 21.6806 12.761 21.6467 12.9984L21.6457 13.0058C21.6724 13.2197 21.7718 13.418 21.9271 13.5676L22.3471 14.0359C24.5942 16.3452 25.858 17.9371 26.1388 18.8114C26.192 18.955 26.2091 19.1095 26.1886 19.2613C26.1681 19.4131 26.1106 19.5575 26.0212 19.6819L26.0233 19.6787C25.9175 19.7878 25.7887 19.8716 25.6462 19.9242C25.5037 19.9767 25.3512 19.9965 25.2 19.9822H25.2042H22.4364C22.0825 19.9822 21.757 19.8583 21.5018 19.6525L21.505 19.6546C21.1407 19.3559 20.8062 19.0225 20.5064 18.6591L20.4969 18.6465C20.0132 18.0998 19.5841 17.6396 19.2096 17.2658C17.9622 16.0799 17.0417 15.487 16.448 15.487C16.2564 15.4698 16.0649 15.52 15.9062 15.6288L15.9094 15.6267C15.8412 15.7121 15.7912 15.8106 15.7623 15.916C15.7334 16.0214 15.7263 16.1316 15.7414 16.2399V16.2357C15.7006 16.7256 15.6872 17.2174 15.7015 17.7089V17.691V18.908C15.7313 19.0534 15.721 19.2041 15.6719 19.3441C15.6227 19.4841 15.5364 19.6081 15.4222 19.7029L15.4211 19.7039C14.8894 19.9442 14.3039 20.0408 13.7232 19.9843L13.7369 19.9853C12.1473 19.9581 10.5953 19.4977 9.24798 18.6539L9.28473 18.6749C7.7311 17.7383 6.39942 16.4754 5.38177 14.9735L5.35342 14.9294C4.36559 13.6122 3.49728 12.2094 2.7588 10.7377L2.6853 10.576C2.19321 9.62305 1.76082 8.64043 1.39061 7.63384L1.32761 7.43958C1.15597 6.91702 1.04671 6.376 1.0021 5.82778L1 5.80153C1 5.27092 1.31221 5.00561 1.93663 5.00561H4.6982C4.97739 4.98374 5.25454 5.06813 5.47418 5.24187L5.47208 5.23977C5.68208 5.46972 5.83749 5.75218 5.91414 6.06719L5.91729 6.07979C6.37352 7.38636 6.93066 8.65547 7.58368 9.87565L7.51333 9.73179C7.98531 10.6905 8.5565 11.5971 9.21753 12.4367L9.19338 12.4041C9.7534 13.0915 10.1902 13.4352 10.5038 13.4352L10.5374 13.4363C10.6113 13.4364 10.6838 13.4171 10.7478 13.3802C10.8117 13.3433 10.8649 13.2902 10.9018 13.2263L10.9028 13.2242C11.0034 12.961 11.0432 12.6785 11.0194 12.3978V12.4041V8.33105C10.9998 7.86925 10.8854 7.41641 10.6834 7.00067L10.6918 7.02062C10.5693 6.7564 10.4102 6.51073 10.2193 6.29085L10.2224 6.29505C10.0463 6.11926 9.93179 5.89127 9.89585 5.64508L9.8948 5.63878C9.8948 5.46027 9.9767 5.29962 10.1048 5.19462L10.1059 5.19357C10.2377 5.07283 10.4101 5.00611 10.5889 5.00666H14.9507C15.0602 4.99388 15.1711 5.00849 15.2736 5.04918C15.376 5.08986 15.4668 5.15535 15.5377 5.23977L15.5387 5.24082C15.6713 5.48587 15.7294 5.76436 15.7057 6.04199V6.03674V11.4685C15.6889 11.6828 15.7388 11.897 15.8485 12.0818L15.8464 12.0776C15.8848 12.135 15.9368 12.1821 15.9978 12.2147C16.0588 12.2473 16.1269 12.2644 16.196 12.2645C16.3731 12.253 16.5449 12.1942 16.6916 12.0944L16.6885 12.0965C16.9741 11.9001 17.2198 11.6764 17.433 11.4234L17.4372 11.4181C18.0859 10.6841 18.6675 9.89346 19.175 9.05557L19.2159 8.98207C19.5771 8.38356 19.9677 7.64644 20.3216 6.88936L20.3867 6.73501L20.855 5.79838C20.9375 5.55621 21.0965 5.34746 21.3081 5.20368C21.5197 5.0599 21.7724 4.9889 22.0279 5.00141H22.0247H24.7874C25.5336 5.00141 25.8136 5.34477 25.6274 6.03149H25.6263Z" fill="#0077FF"/>
</g>
</svg>
