<svg width="24" height="24" viewBox="0 0 24 24" fill="none" xmlns="http://www.w3.org/2000/svg">
<g id="Zen">
<path id="Vector" d="M20.6038 11.6014C20.6054 11.6014 20.6065 11.6014 20.6081 11.6014C20.7177 11.6014 20.8223 11.5554 20.8965 11.4749C20.972 11.3931 21.0093 11.2835 20.9995 11.1727C20.605 6.83333 17.1694 3.39658 12.8296 3.00127C12.7196 2.99262 12.6088 3.02838 12.5271 3.10422C12.4453 3.17967 12.3998 3.28616 12.4009 3.39736C12.4693 9.16431 13.2301 11.5208 20.6038 11.6014ZM20.6038 12.3983C13.2301 12.4789 12.4697 14.8354 12.4013 20.6023C12.4001 20.7135 12.4457 20.82 12.5275 20.8955C12.6006 20.9627 12.696 21 12.7943 21C12.8061 21 12.8182 20.9996 12.83 20.9984C17.1698 20.6031 20.6054 17.1668 20.9995 12.827C21.0093 12.7162 20.9724 12.6066 20.8965 12.5248C20.8207 12.4431 20.715 12.4026 20.6038 12.3983ZM11.1451 3.00323C6.81906 3.40994 3.3945 6.8459 3.00194 11.1735C2.99211 11.2843 3.02905 11.3939 3.10489 11.4757C3.17916 11.5562 3.28408 11.6018 3.39332 11.6018C3.39489 11.6018 3.39646 11.6018 3.39803 11.6018C10.7474 11.5173 11.5062 9.16195 11.5753 3.39893C11.5765 3.28773 11.5305 3.18085 11.4488 3.1054C11.3663 3.02995 11.2559 2.99301 11.1451 3.00323ZM3.39764 12.3979C3.27543 12.3842 3.17955 12.4423 3.1045 12.524C3.02905 12.6058 2.99172 12.7154 3.00155 12.8262C3.3941 17.1538 6.81906 20.5898 11.1451 20.9965C11.1572 20.9976 11.1698 20.998 11.182 20.998C11.2802 20.998 11.3753 20.9611 11.4484 20.8939C11.5302 20.8185 11.5761 20.7116 11.575 20.6004C11.5058 14.8377 10.7474 12.4824 3.39764 12.3979Z" fill="#CED4DA"/>
</g>
</svg>
