<svg width="21" height="16" viewBox="0 0 21 16" fill="none" xmlns="http://www.w3.org/2000/svg">
<path d="M20.1374 4.4779C20.0071 4.36426 19.846 4.2919 19.6745 4.27C19.503 4.2481 19.3289 4.27766 19.1743 4.35491L14.6819 6.59459L10.969 0.423778C10.8911 0.294485 10.7812 0.187523 10.6497 0.113271C10.5183 0.0390192 10.37 0 10.219 0C10.0681 0 9.91969 0.0390192 9.78828 0.113271C9.65686 0.187523 9.54687 0.294485 9.46898 0.423778L5.7561 6.59459L1.26548 4.35578C1.11087 4.27859 0.936863 4.24892 0.765412 4.27052C0.593961 4.29212 0.432748 4.36401 0.302114 4.47714C0.17148 4.59026 0.0772795 4.73954 0.031397 4.90614C-0.0144854 5.07275 -0.00999347 5.24921 0.0443061 5.41326L3.2488 15.2311C3.27293 15.3052 3.31343 15.373 3.36728 15.4293C3.42113 15.4856 3.48696 15.5291 3.5599 15.5566C3.63283 15.584 3.71101 15.5947 3.78864 15.5878C3.86627 15.581 3.94136 15.5568 4.00835 15.5169C4.01442 15.5169 4.5765 15.1844 5.61926 14.8605C6.58147 14.5608 8.15861 14.204 10.219 14.204C12.2794 14.204 13.8565 14.5608 14.8196 14.8605C15.8589 15.1844 16.4245 15.5135 16.4288 15.5161C16.4958 15.5561 16.5709 15.5805 16.6486 15.5875C16.7262 15.5945 16.8045 15.5839 16.8776 15.5565C16.9506 15.5292 17.0165 15.4857 17.0705 15.4294C17.1244 15.373 17.165 15.3053 17.1892 15.2311L20.3937 5.41499C20.4496 5.25107 20.455 5.07416 20.4093 4.90711C20.3636 4.74007 20.2689 4.59056 20.1374 4.4779ZM16.3881 14.3365C15.4354 13.9104 13.3222 13.1647 10.219 13.1647C7.11585 13.1647 5.00261 13.9104 4.04992 14.3365L1.15289 5.4609L5.42699 7.59145C5.62431 7.6887 5.85088 7.70858 6.06213 7.64719C6.27338 7.58581 6.454 7.44759 6.56848 7.25974L10.219 1.19719L13.8695 7.26408C13.984 7.45171 14.1645 7.58977 14.3755 7.65115C14.5866 7.71252 14.8129 7.69277 15.0102 7.59578L19.2851 5.46436L16.3881 14.3365Z" fill="#FFD700"/>
</svg>
