<svg width="34" height="34" viewBox="0 0 34 34" fill="none" xmlns="http://www.w3.org/2000/svg">
<circle cx="16.5846" cy="17.3141" r="16.0846" stroke="black"/>
<path d="M13.9064 20.6709H18.8235C18.9055 20.6709 18.9725 20.6039 18.9725 20.5219V18.9574C18.9725 18.8754 18.9055 18.8084 18.8235 18.8084H18.0785C17.9965 18.8084 17.9295 18.8754 17.9295 18.9574V19.6279H14.8004V18.9574C14.8004 18.8754 14.7334 18.8084 14.6514 18.8084H13.9064C13.8245 18.8084 13.7574 18.8754 13.7574 18.9574V20.5219C13.7574 20.6039 13.8245 20.6709 13.9064 20.6709ZM20.239 18.38C20.239 18.5776 20.3175 18.7671 20.4572 18.9068C20.5969 19.0465 20.7864 19.125 20.984 19.125C21.1816 19.125 21.3711 19.0465 21.5108 18.9068C21.6506 18.7671 21.729 18.5776 21.729 18.38C21.729 18.1824 21.6506 17.9929 21.5108 17.8532C21.3711 17.7135 21.1816 17.635 20.984 17.635C20.7864 17.635 20.5969 17.7135 20.4572 17.8532C20.3175 17.9929 20.239 18.1824 20.239 18.38ZM24.6905 15.2584L24.249 14.4873C24.2292 14.4533 24.1967 14.4286 24.1587 14.4184C24.1206 14.4083 24.0801 14.4137 24.046 14.4333L23.1017 14.9846L21.6434 10.9578C21.5664 10.7175 21.415 10.508 21.2111 10.3593C21.0072 10.2107 20.7614 10.1307 20.5091 10.1309H12.4388C11.7925 10.1309 11.2188 10.5481 11.0195 11.1646L9.63007 14.9865L8.6839 14.4352C8.64979 14.4155 8.60929 14.4102 8.57126 14.4203C8.53322 14.4304 8.50073 14.4552 8.48089 14.4892L8.03947 15.2584C7.99849 15.3292 8.02271 15.4186 8.09348 15.4596L9.21845 16.1152L8.94838 16.8602C8.92603 16.9198 8.91486 16.9831 8.91486 17.0464V23.5317C8.91486 23.8242 9.13464 24.0607 9.4047 24.0607H10.6638C10.8929 24.0607 11.0922 23.8875 11.1406 23.6454L11.284 22.9432H21.4459L21.5894 23.6454C21.6396 23.8875 21.8371 24.0607 22.0662 24.0607H23.3252C23.5953 24.0607 23.8151 23.8242 23.8151 23.5317V17.0464C23.8151 16.9831 23.8039 16.9198 23.7815 16.8602L23.5115 16.1152L24.6346 15.4596C24.6684 15.44 24.6932 15.408 24.7036 15.3704C24.7141 15.3328 24.7094 15.2926 24.6905 15.2584ZM22.4741 17.188V21.6022H10.2559V17.188L10.5464 16.3871H22.1835L22.4741 17.188ZM12.2804 11.6209L12.2898 11.5967L12.2972 11.5725C12.3177 11.511 12.3736 11.47 12.4388 11.47H20.4029L21.8073 15.3441H10.9264L12.2804 11.6209ZM11.0009 18.38C11.0009 18.5776 11.0794 18.7671 11.2191 18.9068C11.3588 19.0465 11.5483 19.125 11.7459 19.125C11.9435 19.125 12.133 19.0465 12.2727 18.9068C12.4124 18.7671 12.4909 18.5776 12.4909 18.38C12.4909 18.1824 12.4124 17.9929 12.2727 17.8532C12.133 17.7135 11.9435 17.635 11.7459 17.635C11.5483 17.635 11.3588 17.7135 11.2191 17.8532C11.0794 17.9929 11.0009 18.1824 11.0009 18.38Z" fill="black"/>
</svg>
