<svg width="34" height="34" viewBox="0 0 34 34" fill="none" xmlns="http://www.w3.org/2000/svg">
<path fill-rule="evenodd" clip-rule="evenodd" d="M9.2 23.9122L9.19999 23.9136L9.19998 23.916L9.19993 23.9201L9.19983 23.9245L9.1999 23.9234C9.19388 24.2867 8.9276 24.5791 8.6 24.5791C8.26863 24.5791 8 24.2799 8 23.9108H8.6C8 23.9108 8 23.9093 8 23.9093L8.00001 23.9077L8.00003 23.9042L8.00012 23.8962L8.00062 23.876C8.00112 23.8608 8.00199 23.8419 8.00349 23.8197C8.00648 23.7752 8.01199 23.7171 8.02205 23.6473C8.04218 23.5078 8.08061 23.3212 8.15383 23.1037C8.30144 22.6653 8.58629 22.1143 9.12638 21.5796C10.2046 20.5121 12.2238 19.5791 16 19.5791C19.7762 19.5791 21.7955 20.5121 22.8736 21.5796C23.4137 22.1143 23.6986 22.6653 23.8462 23.1037C23.9194 23.3212 23.9578 23.5078 23.9779 23.6473C23.988 23.7171 23.9935 23.7752 23.9965 23.8197C23.998 23.8419 23.9989 23.8608 23.9994 23.876L23.9999 23.8962L24 23.9042L24 23.9077L24 23.9093C24 23.9093 24 23.9108 23.4 23.9108H24C24 24.2799 23.7314 24.5791 23.4 24.5791C23.0724 24.5791 22.8061 24.2867 22.8001 23.9234L22.7999 23.9196C22.7993 23.9104 22.7975 23.8898 22.7931 23.8594C22.7844 23.7986 22.765 23.699 22.7226 23.573C22.6389 23.3246 22.4613 22.9597 22.0764 22.5786C21.3046 21.8144 19.6238 20.9157 16 20.9157C12.3762 20.9157 10.6955 21.8144 9.92362 22.5786C9.53871 22.9597 9.36106 23.3246 9.27742 23.573C9.23502 23.699 9.21563 23.7986 9.20685 23.8594C9.20246 23.8898 9.19993 23.9201 9.19993 23.9201" fill="black"/>
<circle cx="16" cy="12.5791" r="4.5" stroke="black"/>
<circle cx="16.5846" cy="16.5846" r="16.0846" stroke="black"/>
</svg>
