<svg xmlns="http://www.w3.org/2000/svg" width="39" height="39" viewBox="0 0 39 39" fill="none">
  <path
    d="M21.6775 13.2762C20.1663 13.2762 18.9312 12.025 18.9312 10.5138C18.9312 9.7854 19.2206 9.08688 19.7356 8.57186C20.2506 8.05684 20.9491 7.7675 21.6775 7.7675C23.205 7.7675 24.44 9.0025 24.44 10.5138C24.44 12.025 23.205 13.2762 21.6775 13.2762ZM16.7375 32.3862L7.10125 30.4688L7.65375 27.7062L14.3975 29.0875L16.5913 17.94L14.1212 18.915V23.5625H11.375V17.1275L18.525 14.0887L19.6137 13.9587C20.5887 13.9587 21.4012 14.5112 21.9375 15.34L23.335 17.5337C24.44 19.5 26.6338 20.8325 29.25 20.8325V23.5625C26.2275 23.5625 23.465 22.2137 21.6775 20.15L20.865 24.2775L23.7412 27.0237V37.375H20.995V29.0875L18.1025 26.3412L16.7375 32.3862ZM34.125 37.375H30.875V4.875H9.75V26.1788L6.5 25.4963V1.625H34.125V37.375ZM9.75 37.375H6.5V32.1425L9.75 32.825V37.375Z"
    fill="black"
  />
</svg>
