<svg width="34" height="34" viewBox="0 0 34 34" fill="none" xmlns="http://www.w3.org/2000/svg">
<circle cx="16.5846" cy="16.9947" r="16.0846" stroke="black"/>
<path d="M21.949 16.9944C21.3092 16.4889 20.4958 16.2205 19.6612 16.2396H14.2963C14.0517 16.2454 13.8084 16.2047 13.5809 16.1198C13.3534 16.0349 13.1464 15.9075 12.9723 15.7455C12.7982 15.5834 12.6606 15.3898 12.5677 15.1764C12.4749 14.963 12.4286 14.7342 12.4318 14.5035C12.4258 14.4137 12.4258 14.3237 12.4318 14.2339C12.5039 13.8218 12.7331 13.4487 13.0765 13.1846C13.4198 12.9205 13.8535 12.7837 14.2963 12.7998H19.5811C20.0122 12.7994 20.4294 12.9434 20.7584 13.2061C21.0873 13.4688 21.3065 13.833 21.377 14.2339H23.0929C23.0211 13.4025 22.6199 12.627 21.9693 12.0615C21.3186 11.4961 20.4661 11.1822 19.5811 11.1823H17.7738V8.70215H16.3439V11.1823H14.2963C13.4114 11.1822 12.5588 11.4961 11.9082 12.0615C11.2575 12.627 10.8564 13.4025 10.7846 14.2339C10.7788 14.3237 10.7788 14.4137 10.7846 14.5035C10.7846 14.9383 10.8754 15.3687 11.0519 15.7704C11.2284 16.172 11.487 16.537 11.8131 16.8444C12.4717 17.4652 13.3649 17.814 14.2963 17.814H19.7184C19.9611 17.8082 20.2025 17.8483 20.4285 17.9319C20.6544 18.0155 20.8604 18.1408 21.0342 18.3006C21.2079 18.4604 21.346 18.6514 21.4403 18.8623C21.5345 19.0731 21.583 19.2997 21.5829 19.5285C21.5948 19.6505 21.5948 19.7732 21.5829 19.8951C21.4921 20.2745 21.2671 20.6136 20.945 20.8565C20.6228 21.0995 20.2225 21.232 19.8099 21.2322H14.4336C14.021 21.232 13.6207 21.0995 13.2985 20.8565C12.9763 20.6136 12.7514 20.2745 12.6605 19.8951H10.9333C11.0316 20.7053 11.4426 21.4531 12.0882 21.996C12.7337 22.5389 13.5685 22.8389 14.4336 22.8389H16.3439V25.2867H17.7738V22.8389H19.7184C20.5835 22.8389 21.4183 22.5389 22.0638 21.996C22.7093 21.4531 23.1204 20.7053 23.2187 19.8951V19.5285C23.2173 19.0442 23.1029 18.566 22.8834 18.1281C22.664 17.6901 22.345 17.3031 21.949 16.9944Z" fill="black"/>
</svg>
