<svg xmlns="http://www.w3.org/2000/svg" width="39" height="39" viewBox="0 0 39 39" fill="none">
  <path
    d="M14.625 27.625V29.25C14.625 30.5429 15.1386 31.7829 16.0529 32.6971C16.9671 33.6114 18.2071 34.125 19.5 34.125C20.7929 34.125 22.0329 33.6114 22.9471 32.6971C23.8614 31.7829 24.375 30.5429 24.375 29.25V27.625M16.25 8.125C16.25 7.26305 16.5924 6.4364 17.2019 5.8269C17.8114 5.21741 18.638 4.875 19.5 4.875C20.362 4.875 21.1886 5.21741 21.7981 5.8269C22.4076 6.4364 22.75 7.26305 22.75 8.125C24.6162 9.00742 26.207 10.381 27.3521 12.0986C28.4971 13.8162 29.1532 15.813 29.25 17.875V22.75C29.3723 23.7603 29.7301 24.7277 30.2946 25.5745C30.8591 26.4212 31.6145 27.1236 32.5 27.625H6.5C7.38553 27.1236 8.14094 26.4212 8.70543 25.5745C9.26992 24.7277 9.62771 23.7603 9.75 22.75V17.875C9.84679 15.813 10.5029 13.8162 11.6479 12.0986C12.793 10.381 14.3838 9.00742 16.25 8.125Z"
    stroke="black"
    stroke-width="2"
    stroke-linecap="round"
    stroke-linejoin="round"
  />
</svg>
